<?xml version="1.0" encoding="utf-8"?>
<!-- Generator: Adobe Illustrator 24.2.0, SVG Export Plug-In . SVG Version: 6.00 Build 0)  -->
<svg version="1.1" id="Capa_1" xmlns="http://www.w3.org/2000/svg" xmlns:xlink="http://www.w3.org/1999/xlink" x="0px" y="0px"
	 viewBox="0 0 600 388" style="enable-background:new 0 0 600 388;" xml:space="preserve">
<style type="text/css">
	.st0{fill:#006ED2;}
</style>
<g>
	<g>
		<path class="st0" d="M80.4,166.1c0.3-4.8,1.5-9.3,3.7-13.7c2.2-4.3,5.2-8.1,9.1-11.4c3.9-3.3,8.5-5.9,13.9-7.9
			c5.4-2,11.5-3,18.3-3s12.9,1,18.3,2.9c5.4,1.9,10,4.5,13.8,7.8c3.8,3.3,6.7,7,8.8,11.2c2.1,4.2,3.1,8.6,3.1,13.1
			c0,4.5-0.9,8.4-2.7,11.7c-1.8,3.3-3.8,6-5.9,8.1c-2.4,2.4-5.2,4.5-8.4,6.2c3.7,1.7,7.1,4,10,6.8c2.5,2.4,4.8,5.6,6.9,9.6
			c2.1,4,3.1,8.9,3.1,14.6c0,4.8-1,9.4-3.1,13.7c-2.1,4.3-5.1,8.1-9,11.4c-3.9,3.3-8.8,5.9-14.5,7.9c-5.7,2-12.2,3-19.4,3
			c-7.2,0-13.6-1-19.4-3c-5.7-2-10.6-4.7-14.6-8c-4-3.3-7.1-7.2-9.3-11.7c-2.2-4.5-3.4-9.2-3.7-14.3l28.9-2c0.5,3.5,2.2,6.5,5.1,9.1
			c2.9,2.6,6.8,3.9,11.9,3.9c5.6,0,9.8-1.3,12.7-4c2.9-2.7,4.3-6,4.3-10c0-3.5-1.5-6.5-4.5-9.1c-3-2.6-7.5-3.9-13.5-3.9h-12v-24h12
			c5.6,0,9.6-1.1,12.2-3.4c2.5-2.3,3.8-5.1,3.8-8.6c0-3.5-1.4-6.5-4.2-9.1s-6.7-3.9-11.8-3.9c-4.5,0-8,1.1-10.5,3.4
			c-2.5,2.3-4,5.1-4.5,8.6L80.4,166.1z"/>
	</g>
	<g>
		<path class="st0" d="M220,143c2.7,0,5.2,0.3,7.4,0.9c2.2,0.6,4.2,1.4,6,2.4c1.7,1,3.3,2.2,4.6,3.5c1.3,1.3,2.4,2.6,3.4,3.9
			c2.2,3.2,3.8,6.7,4.9,10.7l-16.1,1.2c-0.6-1.4-1.3-2.7-2.1-3.8c-0.8-1-1.8-1.8-3.2-2.7c-1.3-0.8-2.9-1.3-4.8-1.3
			c-3.3,0-6.2,1.2-8.5,3.7c-2.3,2.5-3.5,5.8-3.5,10c0,4.2,1.1,7.5,3.5,10c2.3,2.5,5.1,3.7,8.5,3.7c1.9,0,3.5-0.4,4.8-1.2
			c1.3-0.8,2.4-1.7,3.2-2.6c0.9-1.1,1.6-2.4,2.1-3.9l16.1,1.2c-1,4-2.7,7.5-4.9,10.7c-1,1.4-2.1,2.7-3.4,3.9
			c-1.3,1.3-2.8,2.4-4.6,3.5c-1.7,1-3.7,1.8-6,2.4c-2.2,0.6-4.7,0.9-7.4,0.9c-3.9,0-7.5-0.7-10.9-2.2c-3.4-1.5-6.3-3.5-8.9-6.1
			c-2.5-2.6-4.5-5.6-6-9c-1.5-3.5-2.2-7.2-2.2-11.3c0-4,0.7-7.8,2.2-11.3c1.5-3.5,3.5-6.5,6-9c2.5-2.6,5.5-4.6,8.9-6.1
			C212.4,143.7,216.1,143,220,143z"/>
		<path class="st0" d="M275.3,199.6c-3.3,0-6.2-0.5-8.9-1.6c-2.7-1.1-5-2.6-7-4.6c-1.9-2-3.5-4.5-4.5-7.3c-1.1-2.9-1.6-6.1-1.6-9.6
			v-32.1h16.1v29.2c0,3.6,0.9,6.4,2.8,8.3c1.9,2,4.3,3,7.3,3c3,0,5.5-1,7.3-3c1.9-2,2.8-4.8,2.8-8.3v-29.2h16.1V199h-11.9l-2.4-5.4
			c-1.4,1.1-2.9,2.1-4.5,3c-1.4,0.8-3.1,1.5-5.1,2.1C279.9,199.3,277.7,199.6,275.3,199.6z"/>
		<path class="st0" d="M314,171.6c0-4,0.7-7.8,2.2-11.3c1.5-3.5,3.5-6.5,6-9c2.5-2.6,5.5-4.6,8.9-6.1c3.4-1.5,7-2.2,10.9-2.2
			c3.9,0,7.5,0.7,10.9,2.2c3.4,1.5,6.3,3.5,8.9,6.1c2.5,2.6,4.5,5.6,6,9c1.5,3.5,2.2,7.2,2.2,11.3c0,4-0.7,7.8-2.2,11.3
			c-1.5,3.5-3.5,6.5-6,9c-2.5,2.6-5.5,4.6-8.9,6.1c-3.4,1.5-7,2.2-10.9,2.2c-3.9,0-7.5-0.7-10.9-2.2c-3.4-1.5-6.3-3.5-8.9-6.1
			c-2.5-2.6-4.5-5.6-6-9C314.8,179.4,314,175.6,314,171.6z M353.9,171.6c0-4.2-1.2-7.5-3.5-10c-2.3-2.5-5.1-3.7-8.5-3.7
			s-6.2,1.2-8.5,3.7c-2.3,2.5-3.5,5.8-3.5,10c0,4.2,1.1,7.5,3.5,10c2.3,2.5,5.1,3.7,8.5,3.7s6.2-1.2,8.5-3.7
			C352.8,179.1,353.9,175.8,353.9,171.6z"/>
		<path class="st0" d="M383.1,159.1h-8.3v-13.7h4.2c4.4,0,6.5-2.2,6.5-6.5v-7.7h13.7v13.1h11.3v14.9h-11.3v17.9c0,2.4,0.7,4.3,2,5.7
			c1.3,1.4,3.1,2.1,5.1,2.1c0.6,0,1.2,0,1.7-0.1c0.5,0,0.9-0.1,1.3-0.2c0.4-0.1,0.8-0.2,1.2-0.4v14.3c-0.6,0.2-1.4,0.4-2.1,0.6
			c-1.6,0.4-3.5,0.6-5.6,0.6c-6.3,0-11.1-1.7-14.5-5.2c-3.4-3.5-5.1-8.5-5.1-15.1V159.1z"/>
		<path class="st0" d="M443.2,143c3.3,0,6.3,0.6,9,1.7c2.8,1.1,5.2,2.7,7.2,4.7c2,2,3.6,4.4,4.7,7.2c1.1,2.8,1.7,5.8,1.7,9V199
			h-11.9l-2.4-5.4c-1.4,1.1-2.9,2.1-4.5,3c-1.4,0.8-3.1,1.5-5.1,2.1c-1.9,0.6-4.1,0.9-6.5,0.9c-6,0-10.5-1.4-13.7-4.3
			c-3.2-2.9-4.8-6.6-4.8-11.1c0-2.7,0.5-5.2,1.6-7.4c1.1-2.3,2.9-4.2,5.4-5.8c2.5-1.6,5.9-2.9,10.1-3.8c4.2-0.9,9.4-1.4,15.7-1.4
			c0-2.7-0.7-4.8-2-6.2c-1.4-1.4-3.1-2.1-5.1-2.1c-1.5,0-2.7,0.3-3.6,0.9c-0.9,0.6-1.6,1.2-2.2,1.8c-0.6,0.8-1.1,1.7-1.3,2.6
			l-16.1-1.2c0.5-2.7,1.3-5.2,2.5-7.4c1.2-2.3,2.8-4.2,4.7-5.8c1.9-1.6,4.3-2.9,7.1-3.8C436.5,143.5,439.6,143,443.2,143z
			 M439.6,187.7c3,0,5.5-0.9,7.3-2.8c1.9-1.9,2.8-4.3,2.8-7.3v-2.4c-3.4,0-6.2,0.2-8.4,0.5c-2.2,0.4-3.9,0.9-5.1,1.5
			c-1.2,0.6-2.1,1.4-2.5,2.3c-0.4,0.9-0.7,1.8-0.7,2.9c0,1.5,0.6,2.8,1.7,3.8C436,187.1,437.6,187.7,439.6,187.7z"/>
		<path class="st0" d="M489,181.1c0.3,1.8,1.1,3.3,2.3,4.3c1.2,1.1,2.8,1.6,4.9,1.6c2.1,0,3.7-0.5,4.8-1.5c1.2-1,1.7-2.1,1.7-3.3
			c0-1-0.7-1.7-2.1-2.3c-1.4-0.6-3.1-1.2-5.2-1.8c-2.1-0.6-4.3-1.3-6.7-2.1c-2.4-0.8-4.7-1.8-6.7-3.2c-2.1-1.3-3.8-3-5.2-5.2
			c-1.4-2.1-2.1-4.8-2.1-8.1c0-2.2,0.5-4.3,1.4-6.4s2.3-3.8,4.1-5.3c1.8-1.5,4-2.7,6.5-3.6c2.6-0.9,5.5-1.4,8.8-1.4
			c7.1,0,12.6,1.6,16.3,4.8c3.7,3.2,6,7.1,6.9,11.9l-15.5,1.2c-0.3-1.2-1-2.3-2.1-3.3c-1.1-1-2.6-1.5-4.4-1.5c-1.8,0-3.2,0.4-4,1.2
			c-0.9,0.8-1.3,1.8-1.3,3c0,1,0.7,1.8,2.1,2.4c1.4,0.6,3.1,1.1,5.2,1.7c2.1,0.6,4.3,1.3,6.7,2.1c2.4,0.8,4.7,1.8,6.7,3.2
			c2.1,1.3,3.8,3,5.2,5.2c1.4,2.1,2.1,4.8,2.1,8.1c0,2.2-0.5,4.4-1.5,6.4c-1,2.1-2.4,3.9-4.3,5.5c-1.9,1.6-4.2,2.9-7,3.9
			c-2.7,1-5.8,1.4-9.2,1.4c-7.5,0-13.1-1.6-16.8-4.9c-3.8-3.3-6.1-7.6-7-13L489,181.1z"/>
	</g>
	<g>
		<path class="st0" d="M221.2,244.8c-0.5,1.1-1.1,2.1-1.9,3.2c-0.8,1-1.7,1.9-2.7,2.7c-1,0.8-2.2,1.4-3.5,1.8
			c-1.3,0.5-2.7,0.7-4.3,0.7c-1.9,0-3.7-0.4-5.5-1.1c-1.7-0.8-3.2-1.8-4.5-3.2c-1.3-1.4-2.3-3-3-4.8c-0.7-1.9-1.1-4-1.1-6.2
			c0-2.3,0.4-4.3,1.1-6.2c0.7-1.9,1.7-3.5,3-4.8c1.3-1.4,2.7-2.4,4.4-3.2c1.7-0.8,3.4-1.1,5.3-1.1s3.6,0.4,5.2,1.1s3,1.7,4.2,3.1
			s2.2,2.9,2.9,4.8c0.7,1.9,1.1,3.9,1.1,6.2c0,0.4,0,0.8-0.1,1.1c0,0.3-0.1,0.6-0.1,0.8c0,0.3-0.1,0.5-0.1,0.8h-21.4
			c0.1,1.1,0.4,2.1,0.9,3.1c0.5,1,1.2,1.9,1.9,2.7c0.8,0.8,1.7,1.4,2.7,1.8c1,0.5,2.1,0.7,3.2,0.7c0.9,0,1.8-0.1,2.5-0.4
			c0.7-0.3,1.4-0.6,2-0.9c0.6-0.3,1.1-0.7,1.5-1.2c0.4-0.4,0.7-0.8,1-1.2H221.2z M208.4,227.1c-1,0-2,0.2-2.9,0.7
			c-0.9,0.4-1.8,1-2.5,1.8c-0.8,0.8-1.4,1.7-1.9,2.7c-0.5,1.1-0.9,2.2-1,3.5h16.4c-0.3-2.7-1.3-4.8-2.8-6.4
			C212.2,227.8,210.4,227.1,208.4,227.1z"/>
		<path class="st0" d="M241.5,222.4c1.6,0,3.1,0.3,4.5,1c1.4,0.7,2.6,1.5,3.7,2.7c1.1,1.1,1.9,2.5,2.5,4.1c0.6,1.6,0.9,3.4,0.9,5.3
			v17.4h-5v-17.4c0-1.2-0.2-2.4-0.6-3.4s-0.9-1.9-1.6-2.7c-0.7-0.7-1.5-1.3-2.3-1.7c-0.9-0.4-1.8-0.6-2.8-0.6
			c-2.4,0-4.3,0.8-5.8,2.3c-1.5,1.5-2.2,3.5-2.2,6.1v17.4h-5v-30.1h3.7l1.3,3.4c0.6-0.7,1.4-1.3,2.2-1.8c0.8-0.5,1.7-0.9,2.7-1.3
			C238.8,222.5,240.1,222.4,241.5,222.4z"/>
		<path class="st0" d="M299,244.8c-0.5,1.1-1.1,2.1-1.9,3.2c-0.8,1-1.7,1.9-2.7,2.7c-1,0.8-2.2,1.4-3.5,1.8
			c-1.3,0.5-2.7,0.7-4.3,0.7c-1.9,0-3.7-0.4-5.5-1.1c-1.7-0.8-3.2-1.8-4.5-3.2c-1.3-1.4-2.3-3-3-4.8s-1.1-4-1.1-6.2
			c0-2.3,0.4-4.3,1.1-6.2c0.7-1.9,1.7-3.5,3-4.8c1.3-1.4,2.7-2.4,4.4-3.2s3.4-1.1,5.3-1.1s3.6,0.4,5.2,1.1s3,1.7,4.2,3.1
			c1.2,1.3,2.2,2.9,2.9,4.8c0.7,1.9,1.1,3.9,1.1,6.2c0,0.4,0,0.8-0.1,1.1c0,0.3-0.1,0.6-0.1,0.8c0,0.3-0.1,0.5-0.1,0.8H278
			c0.1,1.1,0.4,2.1,0.9,3.1c0.5,1,1.2,1.9,1.9,2.7c0.8,0.8,1.7,1.4,2.7,1.8s2.1,0.7,3.2,0.7c0.9,0,1.8-0.1,2.5-0.4s1.4-0.6,2-0.9
			c0.6-0.3,1.1-0.7,1.5-1.2c0.4-0.4,0.7-0.8,1-1.2H299z M286.3,227.1c-1,0-2,0.2-2.9,0.7c-0.9,0.4-1.8,1-2.5,1.8
			c-0.8,0.8-1.4,1.7-1.9,2.7c-0.5,1.1-0.9,2.2-1,3.5h16.4c-0.3-2.7-1.3-4.8-2.8-6.4C290.1,227.8,288.3,227.1,286.3,227.1z"/>
		<path class="st0" d="M311,252.8h-5v-42.1h5V252.8z"/>
		<path class="st0" d="M357.5,244.8c-0.5,1.1-1.1,2.1-1.9,3.2c-0.8,1-1.7,1.9-2.7,2.7c-1,0.8-2.2,1.4-3.5,1.8
			c-1.3,0.5-2.7,0.7-4.3,0.7c-1.9,0-3.7-0.4-5.5-1.1c-1.7-0.8-3.2-1.8-4.5-3.2c-1.3-1.4-2.3-3-3-4.8s-1.1-4-1.1-6.2
			c0-2.3,0.4-4.3,1.1-6.2c0.7-1.9,1.7-3.5,3-4.8c1.3-1.4,2.7-2.4,4.4-3.2s3.4-1.1,5.3-1.1s3.6,0.4,5.2,1.1s3,1.7,4.2,3.1
			c1.2,1.3,2.2,2.9,2.9,4.8c0.7,1.9,1.1,3.9,1.1,6.2c0,0.4,0,0.8-0.1,1.1c0,0.3-0.1,0.6-0.1,0.8c0,0.3-0.1,0.5-0.1,0.8h-21.4
			c0.1,1.1,0.4,2.1,0.9,3.1c0.5,1,1.2,1.9,1.9,2.7c0.8,0.8,1.7,1.4,2.7,1.8s2.1,0.7,3.2,0.7c0.9,0,1.8-0.1,2.5-0.4s1.4-0.6,2-0.9
			c0.6-0.3,1.1-0.7,1.5-1.2c0.4-0.4,0.7-0.8,1-1.2H357.5z M344.8,227.1c-1,0-2,0.2-2.9,0.7c-0.9,0.4-1.8,1-2.5,1.8
			c-0.8,0.8-1.4,1.7-1.9,2.7c-0.5,1.1-0.9,2.2-1,3.5h16.4c-0.3-2.7-1.3-4.8-2.8-6.4C348.6,227.8,346.8,227.1,344.8,227.1z"/>
		<path class="st0" d="M376.2,237.4l10.7,15.4h-5.7l-8-11.7l-8,11.7h-5.7l10.7-15.4l-10.1-14.7h5.7l7.3,11l7.3-11h5.7L376.2,237.4z"
			/>
		<path class="st0" d="M393.6,214.7h4.3v8h6.7v4.7h-6.7v15.7c0,1.7,0.5,3,1.4,4s2.1,1.4,3.7,1.4c0.4,0,0.8,0,1.2-0.1
			c0.2,0,0.3-0.1,0.5-0.2v4.3c-0.2,0.1-0.5,0.2-0.7,0.3c-0.6,0.2-1.4,0.3-2.3,0.3c-1.2,0-2.3-0.2-3.3-0.7c-1-0.5-2-1.2-2.8-2
			c-0.8-0.9-1.4-1.9-1.9-3.1c-0.5-1.2-0.7-2.6-0.7-4.1v-15.7h-5.4v-4.7h2.4c2.5,0,3.7-1.2,3.7-3.7V214.7z"/>
		<path class="st0" d="M435.1,244.8c-0.5,1.1-1.1,2.1-1.9,3.2c-0.8,1-1.7,1.9-2.7,2.7c-1,0.8-2.2,1.4-3.5,1.8
			c-1.3,0.5-2.7,0.7-4.3,0.7c-1.9,0-3.7-0.4-5.5-1.1c-1.7-0.8-3.2-1.8-4.5-3.2c-1.3-1.4-2.3-3-3-4.8s-1.1-4-1.1-6.2
			c0-2.3,0.4-4.3,1.1-6.2c0.7-1.9,1.7-3.5,3-4.8c1.3-1.4,2.7-2.4,4.4-3.2s3.4-1.1,5.3-1.1s3.6,0.4,5.2,1.1s3,1.7,4.2,3.1
			c1.2,1.3,2.2,2.9,2.9,4.8c0.7,1.9,1.1,3.9,1.1,6.2c0,0.4,0,0.8-0.1,1.1c0,0.3-0.1,0.6-0.1,0.8c0,0.3-0.1,0.5-0.1,0.8H414
			c0.1,1.1,0.4,2.1,0.9,3.1c0.5,1,1.2,1.9,1.9,2.7c0.8,0.8,1.7,1.4,2.7,1.8s2.1,0.7,3.2,0.7c0.9,0,1.8-0.1,2.5-0.4s1.4-0.6,2-0.9
			c0.6-0.3,1.1-0.7,1.5-1.2c0.4-0.4,0.7-0.8,1-1.2H435.1z M422.4,227.1c-1,0-2,0.2-2.9,0.7c-0.9,0.4-1.8,1-2.5,1.8
			c-0.8,0.8-1.4,1.7-1.9,2.7c-0.5,1.1-0.9,2.2-1,3.5h16.4c-0.3-2.7-1.3-4.8-2.8-6.4C426.1,227.8,424.4,227.1,422.4,227.1z"/>
		<path class="st0" d="M456.1,227.4h-1.3c-2.4,0-4.3,0.8-5.8,2.3c-1.5,1.5-2.2,3.5-2.2,6.1v17h-5v-30.1h3.7l1.3,3.4
			c0.6-0.7,1.4-1.3,2.2-1.8c0.8-0.5,1.7-0.9,2.7-1.3c1.1-0.4,2.3-0.6,3.8-0.6h0.7V227.4z"/>
		<path class="st0" d="M460.5,214.2c0-0.9,0.3-1.7,0.9-2.3c0.6-0.6,1.3-0.9,2.2-0.9c0.9,0,1.7,0.3,2.3,0.9c0.6,0.6,0.9,1.4,0.9,2.3
			c0,0.9-0.3,1.6-0.9,2.3c-0.6,0.6-1.4,0.9-2.3,0.9c-0.9,0-1.6-0.3-2.2-0.9S460.5,215.1,460.5,214.2z M466.1,252.8h-5v-30.1h5V252.8
			z"/>
		<path class="st0" d="M500.2,237.7c0,2.3-0.4,4.3-1.1,6.2c-0.7,1.9-1.7,3.5-3,4.9c-1.3,1.4-2.8,2.4-4.5,3.2
			c-1.7,0.8-3.5,1.1-5.5,1.1s-3.7-0.4-5.5-1.1c-1.7-0.8-3.2-1.8-4.5-3.2c-1.3-1.4-2.3-3-3-4.8s-1.1-4-1.1-6.2c0-2.3,0.4-4.3,1.1-6.2
			c0.7-1.9,1.7-3.5,3-4.8c1.3-1.4,2.8-2.4,4.5-3.2c1.7-0.8,3.5-1.1,5.5-1.1s3.7,0.4,5.5,1.1c1.7,0.8,3.2,1.8,4.5,3.2
			c1.3,1.4,2.3,3,3,4.8C499.8,233.4,500.2,235.5,500.2,237.7z M477.1,237.7c0,1.6,0.2,3.1,0.7,4.4c0.5,1.3,1.2,2.4,2,3.4
			c0.8,0.9,1.8,1.7,2.9,2.2s2.2,0.8,3.4,0.8s2.3-0.3,3.4-0.8s2-1.2,2.9-2.2c0.8-0.9,1.5-2.1,2-3.4s0.8-2.8,0.8-4.4s-0.3-3.1-0.8-4.4
			s-1.2-2.4-2-3.4c-0.8-0.9-1.8-1.7-2.9-2.2c-1.1-0.5-2.2-0.8-3.4-0.8s-2.3,0.3-3.4,0.8c-1.1,0.5-2.1,1.2-2.9,2.2
			c-0.8,0.9-1.5,2.1-2,3.4C477.4,234.7,477.1,236.1,477.1,237.7z"/>
		<path class="st0" d="M520.6,227.4h-1.3c-2.4,0-4.3,0.8-5.8,2.3c-1.5,1.5-2.2,3.5-2.2,6.1v17h-5v-30.1h3.7l1.3,3.4
			c0.6-0.7,1.4-1.3,2.2-1.8c0.8-0.5,1.7-0.9,2.7-1.3c1.1-0.4,2.3-0.6,3.8-0.6h0.7V227.4z"/>
	</g>
</g>
</svg>
