<svg width="25" height="24" viewBox="0 0 25 24" fill="none" xmlns="http://www.w3.org/2000/svg">
<path d="M8.50096 12C8.50096 9.79094 10.2913 7.99968 12.5005 7.99968C14.7096 7.99968 16.501 9.79094 16.501 12C16.501 14.2091 14.7096 16.0003 12.5005 16.0003C10.2913 16.0003 8.50096 14.2091 8.50096 12ZM6.33838 12C6.33838 15.4032 9.09714 18.1619 12.5005 18.1619C15.9038 18.1619 18.6626 15.4032 18.6626 12C18.6626 8.5968 15.9038 5.83814 12.5005 5.83814C9.09714 5.83814 6.33838 8.5968 6.33838 12ZM17.4665 5.59382C17.4662 6.38911 18.1106 7.03408 18.906 7.0344C19.7013 7.03472 20.3463 6.39027 20.3466 5.59498C20.3469 4.79969 19.7024 4.15472 18.9071 4.1544H18.9065C18.1116 4.15477 17.4672 4.79891 17.4665 5.59382ZM7.65229 21.7677C6.48229 21.7144 5.84636 21.5196 5.42375 21.3549C4.86347 21.1368 4.46371 20.877 4.04341 20.4573C3.6231 20.0376 3.36293 19.6382 3.14577 19.078C2.98103 18.6556 2.78614 18.0195 2.73295 16.8495C2.67477 15.5846 2.66316 15.2047 2.66316 12.0001C2.66316 8.79552 2.67573 8.41661 2.73295 7.15066C2.78624 5.9807 2.98256 5.34586 3.14577 4.92221C3.36389 4.36195 3.62368 3.96221 4.04341 3.54192C4.46313 3.12163 4.86251 2.86147 5.42375 2.64432C5.84617 2.47958 6.48229 2.2847 7.65229 2.23152C8.91723 2.17334 9.29722 2.16173 12.5005 2.16173C15.7037 2.16173 16.0841 2.1743 17.3501 2.23152C18.5201 2.2848 19.155 2.48112 19.5787 2.64432C20.1389 2.86147 20.5387 3.12221 20.959 3.54192C21.3793 3.96163 21.6385 4.36195 21.8566 4.92221C22.0214 5.34461 22.2163 5.9807 22.2694 7.15066C22.3276 8.41661 22.3392 8.79552 22.3392 12.0001C22.3392 15.2047 22.3276 15.5836 22.2694 16.8495C22.2162 18.0195 22.0203 18.6554 21.8566 19.078C21.6385 19.6382 21.3787 20.038 20.959 20.4573C20.5393 20.8766 20.1389 21.1368 19.5787 21.3549C19.1562 21.5196 18.5201 21.7145 17.3501 21.7677C16.0852 21.8259 15.7052 21.8375 12.5005 21.8375C9.29578 21.8375 8.91685 21.8259 7.65229 21.7677ZM7.55292 0.072672C6.2754 0.130848 5.40244 0.333408 4.64007 0.630048C3.85053 0.936384 3.18216 1.34736 2.51426 2.01418C1.84636 2.68099 1.43642 3.3504 1.13007 4.1399C0.833421 4.90272 0.630853 5.77517 0.572675 7.05264C0.513537 8.33213 0.5 8.74118 0.5 12C0.5 15.2588 0.513537 15.6679 0.572675 16.9474C0.630853 18.2249 0.833421 19.0973 1.13007 19.8601C1.43642 20.6491 1.84645 21.3193 2.51426 21.9858C3.18206 22.6524 3.85053 23.0628 4.64007 23.37C5.40388 23.6666 6.2754 23.8692 7.55292 23.9273C8.83313 23.9855 9.24153 24 12.5005 24C15.7594 24 16.1685 23.9865 17.448 23.9273C18.7257 23.8692 19.598 23.6666 20.3609 23.37C21.1499 23.0628 21.8188 22.6526 22.4867 21.9858C23.1546 21.319 23.5637 20.6491 23.8709 19.8601C24.1675 19.0973 24.3711 18.2248 24.4283 16.9474C24.4865 15.6669 24.5 15.2588 24.5 12C24.5 8.74118 24.4865 8.33213 24.4283 7.05264C24.3701 5.77507 24.1675 4.90224 23.8709 4.1399C23.5637 3.35088 23.1535 2.68205 22.4867 2.01418C21.8199 1.3463 21.1499 0.936384 20.3619 0.630048C19.598 0.333408 18.7256 0.129888 17.449 0.072672C16.1695 0.014496 15.7604 0 12.5014 0C9.24249 0 8.83313 0.013536 7.55292 0.072672Z" fill="white"/>
</svg>
