<svg width="87" height="30" viewBox="0 0 87 30" fill="none" xmlns="http://www.w3.org/2000/svg">
<path fill-rule="evenodd" clip-rule="evenodd" d="M57.7013 21.45L52.9795 18.9182C52.3847 18.5993 51.6487 18.7468 51.2216 19.2709C50.9632 19.5877 50.686 19.913 50.4848 20.1114C49.0864 21.4875 47.4363 22.264 45.3332 22.264C41.2857 22.264 38.9962 19.1959 38.9962 16.024C38.9962 11.9957 42.6161 8.16986 46.976 8.16986C49.0666 8.16986 50.8048 9.08926 51.9368 10.4909C52.3456 10.9971 53.0583 11.1353 53.6404 10.8472C55.0766 10.1369 58.9335 8.21738 59.0755 8.14601C59.1934 8.08666 59.2412 7.94259 59.1821 7.82421C59.1165 7.69315 59.0437 7.54759 59.0353 7.53175C56.9576 3.67906 52.7775 0.991211 47.6794 0.991211C38.8396 0.991211 31.4389 8.54452 31.4389 16.947C31.4389 23.9878 36.868 29.4429 44.2357 29.4429C49.6562 29.4429 54.614 26.462 57.5931 22.0865C57.6372 22.0216 57.7178 21.8969 57.7885 21.7863C57.8629 21.6699 57.8227 21.515 57.7013 21.45V21.45ZM83.4152 1.7206C83.3595 1.30303 83.0071 0.99138 82.5907 0.99138L73.0916 0.991211C72.6167 0.991211 72.18 1.25447 71.9536 1.67712L57.6938 28.3072C57.6104 28.463 57.7219 28.6525 57.8971 28.6525H64.5519C65.0287 28.6525 65.4669 28.3872 65.6924 27.9621L76.4692 7.63744H76.8061L78.0171 17.5778C78.034 17.7173 77.9267 17.8403 77.7877 17.8403H73.9364C72.9113 17.8403 72.4375 19.1293 73.2132 19.8076L77.531 23.5811C78.408 24.3476 78.9722 25.4164 79.1138 26.5803L79.2763 27.9135C79.3278 28.3355 79.6821 28.6525 80.102 28.6525H86.7456C86.8855 28.6525 86.9934 28.5277 86.9747 28.3872L83.4152 1.7206ZM22.125 15.2174C21.6565 19.1457 18.504 22.3303 14.5896 22.3303C10.6754 22.3303 7.88187 19.1457 8.35028 15.2174C8.81887 11.2889 12.3718 8.10449 16.2861 8.10449C20.2003 8.10449 22.5935 11.2889 22.125 15.2174V15.2174ZM16.9796 0.991211C8.94359 0.991211 1.65081 7.36041 0.690832 15.2171C-0.269146 23.0738 5.46725 29.4429 13.5034 29.4429C21.5396 29.4429 28.8324 23.0738 29.7922 15.2171C30.7522 7.36041 25.0158 0.991211 16.9796 0.991211V0.991211Z" fill="white"/>
</svg>
