<?xml version="1.0" encoding="utf-8"?>
<!-- Generator: Adobe Illustrator 25.4.1, SVG Export Plug-In . SVG Version: 6.00 Build 0)  -->
<svg version="1.1" id="Capa_1" xmlns="http://www.w3.org/2000/svg" xmlns:xlink="http://www.w3.org/1999/xlink" x="0px" y="0px"
	 viewBox="0 0 800 800" style="enable-background:new 0 0 800 800;" xml:space="preserve">
<style type="text/css">
	.st0{clip-path:url(#SVGID_00000023988356946464908910000012974168154838802346_);fill:#FFFFFF;}
	.st1{fill:#006ED2;}
</style>
<g>
	<g>
		<defs>
			<rect id="SVGID_1_" width="800" height="800"/>
		</defs>
		<use xlink:href="#SVGID_1_"  style="overflow:visible;fill:#FFFFFF;"/>
		<clipPath id="SVGID_00000032620466567854710370000013813836017049426572_">
			<use xlink:href="#SVGID_1_"  style="overflow:visible;"/>
		</clipPath>
		
			<rect y="-0.1" style="clip-path:url(#SVGID_00000032620466567854710370000013813836017049426572_);fill:#FFFFFF;" width="799.4" height="799.4"/>
	</g>
	<path class="st1" d="M302.8,48.3c6.7,0,12.1,5.4,12.1,12.1s-5.4,12.1-12.1,12.1c-6.7,0-12.1-5.4-12.1-12.1S296.1,48.3,302.8,48.3
		L302.8,48.3z M302.8,48.3"/>
	<path class="st1" d="M351.3,48.3c6.7,0,12.1,5.4,12.1,12.1s-5.4,12.1-12.1,12.1s-12.1-5.4-12.1-12.1S344.6,48.3,351.3,48.3
		L351.3,48.3z M351.3,48.3"/>
	<path class="st1" d="M375.5,48.3c6.7,0,12.1,5.4,12.1,12.1s-5.4,12.1-12.1,12.1c-6.7,0-12.1-5.4-12.1-12.1S368.8,48.3,375.5,48.3
		L375.5,48.3z M375.5,48.3"/>
	<path class="st1" d="M399.7,48.3c6.7,0,12.1,5.4,12.1,12.1s-5.4,12.1-12.1,12.1c-6.7,0-12.1-5.4-12.1-12.1S393,48.3,399.7,48.3
		L399.7,48.3z M399.7,48.3"/>
	<path class="st1" d="M423.9,48.3c6.7,0,12.1,5.4,12.1,12.1s-5.4,12.1-12.1,12.1c-6.7,0-12.1-5.4-12.1-12.1S417.2,48.3,423.9,48.3
		L423.9,48.3z M423.9,48.3"/>
	<path class="st1" d="M496.6,48.3c6.7,0,12.1,5.4,12.1,12.1s-5.4,12.1-12.1,12.1c-6.7,0-12.1-5.4-12.1-12.1S489.9,48.3,496.6,48.3
		L496.6,48.3z M496.6,48.3"/>
	<path class="st1" d="M520.8,48.3c6.7,0,12.1,5.4,12.1,12.1s-5.4,12.1-12.1,12.1s-12.1-5.4-12.1-12.1S514.1,48.3,520.8,48.3
		L520.8,48.3z M520.8,48.3"/>
	<path class="st1" d="M399.7,72.6c6.7,0,12.1,5.4,12.1,12.1c0,6.7-5.4,12.1-12.1,12.1c-6.7,0-12.1-5.4-12.1-12.1
		C387.6,78,393,72.6,399.7,72.6L399.7,72.6z M399.7,72.6"/>
	<path class="st1" d="M423.9,72.6c6.7,0,12.1,5.4,12.1,12.1c0,6.7-5.4,12.1-12.1,12.1c-6.7,0-12.1-5.4-12.1-12.1
		C411.8,78,417.2,72.6,423.9,72.6L423.9,72.6z M423.9,72.6"/>
	<path class="st1" d="M448.2,72.6c6.7,0,12.1,5.4,12.1,12.1c0,6.7-5.4,12.1-12.1,12.1c-6.7,0-12.1-5.4-12.1-12.1
		C436,78,441.5,72.6,448.2,72.6L448.2,72.6z M448.2,72.6"/>
	<path class="st1" d="M472.4,72.6c6.7,0,12.1,5.4,12.1,12.1c0,6.7-5.4,12.1-12.1,12.1c-6.7,0-12.1-5.4-12.1-12.1
		C460.3,78,465.7,72.6,472.4,72.6L472.4,72.6z M472.4,72.6"/>
	<path class="st1" d="M545.1,72.6c6.7,0,12.1,5.4,12.1,12.1c0,6.7-5.4,12.1-12.1,12.1c-6.7,0-12.1-5.4-12.1-12.1
		C532.9,78,538.4,72.6,545.1,72.6L545.1,72.6z M545.1,72.6"/>
	<path class="st1" d="M302.8,96.8c6.7,0,12.1,5.4,12.1,12.1c0,6.7-5.4,12.1-12.1,12.1c-6.7,0-12.1-5.4-12.1-12.1
		C290.7,102.2,296.1,96.8,302.8,96.8L302.8,96.8z M302.8,96.8"/>
	<path class="st1" d="M327,96.8c6.7,0,12.1,5.4,12.1,12.1c0,6.7-5.4,12.1-12.1,12.1c-6.7,0-12.1-5.4-12.1-12.1
		C314.9,102.2,320.3,96.8,327,96.8L327,96.8z M327,96.8"/>
	<path class="st1" d="M399.7,96.8c6.7,0,12.1,5.4,12.1,12.1c0,6.7-5.4,12.1-12.1,12.1c-6.7,0-12.1-5.4-12.1-12.1
		C387.6,102.2,393,96.8,399.7,96.8L399.7,96.8z M399.7,96.8"/>
	<path class="st1" d="M472.4,96.8c6.7,0,12.1,5.4,12.1,12.1c0,6.7-5.4,12.1-12.1,12.1c-6.7,0-12.1-5.4-12.1-12.1
		C460.3,102.2,465.7,96.8,472.4,96.8L472.4,96.8z M472.4,96.8"/>
	<path class="st1" d="M520.8,96.8c6.7,0,12.1,5.4,12.1,12.1c0,6.7-5.4,12.1-12.1,12.1s-12.1-5.4-12.1-12.1
		C508.7,102.2,514.1,96.8,520.8,96.8L520.8,96.8z M520.8,96.8"/>
	<path class="st1" d="M545.1,96.8c6.7,0,12.1,5.4,12.1,12.1c0,6.7-5.4,12.1-12.1,12.1c-6.7,0-12.1-5.4-12.1-12.1
		C532.9,102.2,538.4,96.8,545.1,96.8L545.1,96.8z M545.1,96.8"/>
	<path class="st1" d="M302.8,121c6.7,0,12.1,5.4,12.1,12.1c0,6.7-5.4,12.1-12.1,12.1c-6.7,0-12.1-5.4-12.1-12.1
		C290.7,126.4,296.1,121,302.8,121L302.8,121z M302.8,121"/>
	<path class="st1" d="M327,121c6.7,0,12.1,5.4,12.1,12.1c0,6.7-5.4,12.1-12.1,12.1c-6.7,0-12.1-5.4-12.1-12.1
		C314.9,126.4,320.3,121,327,121L327,121z M327,121"/>
	<path class="st1" d="M351.3,121c6.7,0,12.1,5.4,12.1,12.1c0,6.7-5.4,12.1-12.1,12.1s-12.1-5.4-12.1-12.1
		C339.1,126.4,344.6,121,351.3,121L351.3,121z M351.3,121"/>
	<path class="st1" d="M399.7,121c6.7,0,12.1,5.4,12.1,12.1c0,6.7-5.4,12.1-12.1,12.1c-6.7,0-12.1-5.4-12.1-12.1
		C387.6,126.4,393,121,399.7,121L399.7,121z M399.7,121"/>
	<path class="st1" d="M423.9,121c6.7,0,12.1,5.4,12.1,12.1c0,6.7-5.4,12.1-12.1,12.1c-6.7,0-12.1-5.4-12.1-12.1
		C411.8,126.4,417.2,121,423.9,121L423.9,121z M423.9,121"/>
	<path class="st1" d="M448.2,121c6.7,0,12.1,5.4,12.1,12.1c0,6.7-5.4,12.1-12.1,12.1c-6.7,0-12.1-5.4-12.1-12.1
		C436,126.4,441.5,121,448.2,121L448.2,121z M448.2,121"/>
	<path class="st1" d="M520.8,121c6.7,0,12.1,5.4,12.1,12.1c0,6.7-5.4,12.1-12.1,12.1s-12.1-5.4-12.1-12.1
		C508.7,126.4,514.1,121,520.8,121L520.8,121z M520.8,121"/>
	<path class="st1" d="M278.6,145.2c6.7,0,12.1,5.4,12.1,12.1c0,6.7-5.4,12.1-12.1,12.1s-12.1-5.4-12.1-12.1
		C266.5,150.7,271.9,145.2,278.6,145.2L278.6,145.2z M278.6,145.2"/>
	<path class="st1" d="M302.8,145.2c6.7,0,12.1,5.4,12.1,12.1c0,6.7-5.4,12.1-12.1,12.1c-6.7,0-12.1-5.4-12.1-12.1
		C290.7,150.7,296.1,145.2,302.8,145.2L302.8,145.2z M302.8,145.2"/>
	<path class="st1" d="M327,145.2c6.7,0,12.1,5.4,12.1,12.1c0,6.7-5.4,12.1-12.1,12.1c-6.7,0-12.1-5.4-12.1-12.1
		C314.9,150.7,320.3,145.2,327,145.2L327,145.2z M327,145.2"/>
	<path class="st1" d="M351.3,145.2c6.7,0,12.1,5.4,12.1,12.1c0,6.7-5.4,12.1-12.1,12.1s-12.1-5.4-12.1-12.1
		C339.1,150.7,344.6,145.2,351.3,145.2L351.3,145.2z M351.3,145.2"/>
	<path class="st1" d="M399.7,145.2c6.7,0,12.1,5.4,12.1,12.1c0,6.7-5.4,12.1-12.1,12.1c-6.7,0-12.1-5.4-12.1-12.1
		C387.6,150.7,393,145.2,399.7,145.2L399.7,145.2z M399.7,145.2"/>
	<path class="st1" d="M423.9,145.2c6.7,0,12.1,5.4,12.1,12.1c0,6.7-5.4,12.1-12.1,12.1c-6.7,0-12.1-5.4-12.1-12.1
		C411.8,150.7,417.2,145.2,423.9,145.2L423.9,145.2z M423.9,145.2"/>
	<path class="st1" d="M448.2,145.2c6.7,0,12.1,5.4,12.1,12.1c0,6.7-5.4,12.1-12.1,12.1c-6.7,0-12.1-5.4-12.1-12.1
		C436,150.7,441.5,145.2,448.2,145.2L448.2,145.2z M448.2,145.2"/>
	<path class="st1" d="M472.4,145.2c6.7,0,12.1,5.4,12.1,12.1c0,6.7-5.4,12.1-12.1,12.1c-6.7,0-12.1-5.4-12.1-12.1
		C460.3,150.7,465.7,145.2,472.4,145.2L472.4,145.2z M472.4,145.2"/>
	<path class="st1" d="M496.6,145.2c6.7,0,12.1,5.4,12.1,12.1c0,6.7-5.4,12.1-12.1,12.1c-6.7,0-12.1-5.4-12.1-12.1
		C484.5,150.7,489.9,145.2,496.6,145.2L496.6,145.2z M496.6,145.2"/>
	<path class="st1" d="M254.4,169.5c6.7,0,12.1,5.4,12.1,12.1c0,6.7-5.4,12.1-12.1,12.1c-6.7,0-12.1-5.4-12.1-12.1
		C242.2,174.9,247.7,169.5,254.4,169.5L254.4,169.5z M254.4,169.5"/>
	<path class="st1" d="M302.8,169.5c6.7,0,12.1,5.4,12.1,12.1c0,6.7-5.4,12.1-12.1,12.1c-6.7,0-12.1-5.4-12.1-12.1
		C290.7,174.9,296.1,169.5,302.8,169.5L302.8,169.5z M302.8,169.5"/>
	<path class="st1" d="M327,169.5c6.7,0,12.1,5.4,12.1,12.1c0,6.7-5.4,12.1-12.1,12.1c-6.7,0-12.1-5.4-12.1-12.1
		C314.9,174.9,320.3,169.5,327,169.5L327,169.5z M327,169.5"/>
	<path class="st1" d="M375.5,169.5c6.7,0,12.1,5.4,12.1,12.1c0,6.7-5.4,12.1-12.1,12.1c-6.7,0-12.1-5.4-12.1-12.1
		C363.4,174.9,368.8,169.5,375.5,169.5L375.5,169.5z M375.5,169.5"/>
	<path class="st1" d="M423.9,169.5c6.7,0,12.1,5.4,12.1,12.1c0,6.7-5.4,12.1-12.1,12.1c-6.7,0-12.1-5.4-12.1-12.1
		C411.8,174.9,417.2,169.5,423.9,169.5L423.9,169.5z M423.9,169.5"/>
	<path class="st1" d="M496.6,169.5c6.7,0,12.1,5.4,12.1,12.1c0,6.7-5.4,12.1-12.1,12.1c-6.7,0-12.1-5.4-12.1-12.1
		C484.5,174.9,489.9,169.5,496.6,169.5L496.6,169.5z M496.6,169.5"/>
	<path class="st1" d="M520.8,169.5c6.7,0,12.1,5.4,12.1,12.1c0,6.7-5.4,12.1-12.1,12.1s-12.1-5.4-12.1-12.1
		C508.7,174.9,514.1,169.5,520.8,169.5L520.8,169.5z M520.8,169.5"/>
	<path class="st1" d="M545.1,169.5c6.7,0,12.1,5.4,12.1,12.1c0,6.7-5.4,12.1-12.1,12.1c-6.7,0-12.1-5.4-12.1-12.1
		C532.9,174.9,538.4,169.5,545.1,169.5L545.1,169.5z M545.1,169.5"/>
	<path class="st1" d="M254.4,193.7c6.7,0,12.1,5.4,12.1,12.1c0,6.7-5.4,12.1-12.1,12.1c-6.7,0-12.1-5.4-12.1-12.1
		C242.2,199.1,247.7,193.7,254.4,193.7L254.4,193.7z M254.4,193.7"/>
	<path class="st1" d="M302.8,193.7c6.7,0,12.1,5.4,12.1,12.1c0,6.7-5.4,12.1-12.1,12.1c-6.7,0-12.1-5.4-12.1-12.1
		C290.7,199.1,296.1,193.7,302.8,193.7L302.8,193.7z M302.8,193.7"/>
	<path class="st1" d="M351.3,193.7c6.7,0,12.1,5.4,12.1,12.1c0,6.7-5.4,12.1-12.1,12.1s-12.1-5.4-12.1-12.1
		C339.1,199.1,344.6,193.7,351.3,193.7L351.3,193.7z M351.3,193.7"/>
	<path class="st1" d="M399.7,193.7c6.7,0,12.1,5.4,12.1,12.1c0,6.7-5.4,12.1-12.1,12.1c-6.7,0-12.1-5.4-12.1-12.1
		C387.6,199.1,393,193.7,399.7,193.7L399.7,193.7z M399.7,193.7"/>
	<path class="st1" d="M448.2,193.7c6.7,0,12.1,5.4,12.1,12.1c0,6.7-5.4,12.1-12.1,12.1c-6.7,0-12.1-5.4-12.1-12.1
		C436,199.1,441.5,193.7,448.2,193.7L448.2,193.7z M448.2,193.7"/>
	<path class="st1" d="M496.6,193.7c6.7,0,12.1,5.4,12.1,12.1c0,6.7-5.4,12.1-12.1,12.1c-6.7,0-12.1-5.4-12.1-12.1
		C484.5,199.1,489.9,193.7,496.6,193.7L496.6,193.7z M496.6,193.7"/>
	<path class="st1" d="M545.1,193.7c6.7,0,12.1,5.4,12.1,12.1c0,6.7-5.4,12.1-12.1,12.1c-6.7,0-12.1-5.4-12.1-12.1
		C532.9,199.1,538.4,193.7,545.1,193.7L545.1,193.7z M545.1,193.7"/>
	<path class="st1" d="M302.8,217.9c6.7,0,12.1,5.4,12.1,12.1c0,6.7-5.4,12.1-12.1,12.1c-6.7,0-12.1-5.4-12.1-12.1
		C290.7,223.3,296.1,217.9,302.8,217.9L302.8,217.9z M302.8,217.9"/>
	<path class="st1" d="M423.9,217.9c6.7,0,12.1,5.4,12.1,12.1c0,6.7-5.4,12.1-12.1,12.1c-6.7,0-12.1-5.4-12.1-12.1
		C411.8,223.3,417.2,217.9,423.9,217.9L423.9,217.9z M423.9,217.9"/>
	<path class="st1" d="M448.2,217.9c6.7,0,12.1,5.4,12.1,12.1c0,6.7-5.4,12.1-12.1,12.1c-6.7,0-12.1-5.4-12.1-12.1
		C436,223.3,441.5,217.9,448.2,217.9L448.2,217.9z M448.2,217.9"/>
	<path class="st1" d="M472.4,217.9c6.7,0,12.1,5.4,12.1,12.1c0,6.7-5.4,12.1-12.1,12.1c-6.7,0-12.1-5.4-12.1-12.1
		C460.3,223.3,465.7,217.9,472.4,217.9L472.4,217.9z M472.4,217.9"/>
	<path class="st1" d="M496.6,217.9c6.7,0,12.1,5.4,12.1,12.1c0,6.7-5.4,12.1-12.1,12.1c-6.7,0-12.1-5.4-12.1-12.1
		C484.5,223.3,489.9,217.9,496.6,217.9L496.6,217.9z M496.6,217.9"/>
	<path class="st1" d="M520.8,217.9c6.7,0,12.1,5.4,12.1,12.1c0,6.7-5.4,12.1-12.1,12.1s-12.1-5.4-12.1-12.1
		C508.7,223.3,514.1,217.9,520.8,217.9L520.8,217.9z M520.8,217.9"/>
	<path class="st1" d="M60.6,242.1c6.7,0,12.1,5.4,12.1,12.1c0,6.7-5.4,12.1-12.1,12.1c-6.7,0-12.1-5.4-12.1-12.1
		C48.4,247.6,53.9,242.1,60.6,242.1L60.6,242.1z M60.6,242.1"/>
	<path class="st1" d="M133.2,242.1c6.7,0,12.1,5.4,12.1,12.1c0,6.7-5.4,12.1-12.1,12.1c-6.7,0-12.1-5.4-12.1-12.1
		C121.1,247.6,126.5,242.1,133.2,242.1L133.2,242.1z M133.2,242.1"/>
	<path class="st1" d="M181.7,242.1c6.7,0,12.1,5.4,12.1,12.1c0,6.7-5.4,12.1-12.1,12.1s-12.1-5.4-12.1-12.1
		C169.6,247.6,175,242.1,181.7,242.1L181.7,242.1z M181.7,242.1"/>
	<path class="st1" d="M205.9,242.1c6.7,0,12.1,5.4,12.1,12.1c0,6.7-5.4,12.1-12.1,12.1s-12.1-5.4-12.1-12.1
		C193.8,247.6,199.2,242.1,205.9,242.1L205.9,242.1z M205.9,242.1"/>
	<path class="st1" d="M254.4,242.1c6.7,0,12.1,5.4,12.1,12.1c0,6.7-5.4,12.1-12.1,12.1c-6.7,0-12.1-5.4-12.1-12.1
		C242.2,247.6,247.7,242.1,254.4,242.1L254.4,242.1z M254.4,242.1"/>
	<path class="st1" d="M278.6,242.1c6.7,0,12.1,5.4,12.1,12.1c0,6.7-5.4,12.1-12.1,12.1s-12.1-5.4-12.1-12.1
		C266.5,247.6,271.9,242.1,278.6,242.1L278.6,242.1z M278.6,242.1"/>
	<path class="st1" d="M327,242.1c6.7,0,12.1,5.4,12.1,12.1c0,6.7-5.4,12.1-12.1,12.1c-6.7,0-12.1-5.4-12.1-12.1
		C314.9,247.6,320.3,242.1,327,242.1L327,242.1z M327,242.1"/>
	<path class="st1" d="M423.9,242.1c6.7,0,12.1,5.4,12.1,12.1c0,6.7-5.4,12.1-12.1,12.1c-6.7,0-12.1-5.4-12.1-12.1
		C411.8,247.6,417.2,242.1,423.9,242.1L423.9,242.1z M423.9,242.1"/>
	<path class="st1" d="M448.2,242.1c6.7,0,12.1,5.4,12.1,12.1c0,6.7-5.4,12.1-12.1,12.1c-6.7,0-12.1-5.4-12.1-12.1
		C436,247.6,441.5,242.1,448.2,242.1L448.2,242.1z M448.2,242.1"/>
	<path class="st1" d="M545.1,242.1c6.7,0,12.1,5.4,12.1,12.1c0,6.7-5.4,12.1-12.1,12.1c-6.7,0-12.1-5.4-12.1-12.1
		C532.9,247.6,538.4,242.1,545.1,242.1L545.1,242.1z M545.1,242.1"/>
	<path class="st1" d="M569.3,242.1c6.7,0,12.1,5.4,12.1,12.1c0,6.7-5.4,12.1-12.1,12.1s-12.1-5.4-12.1-12.1
		C557.2,247.6,562.6,242.1,569.3,242.1L569.3,242.1z M569.3,242.1"/>
	<path class="st1" d="M617.7,242.1c6.7,0,12.1,5.4,12.1,12.1c0,6.7-5.4,12.1-12.1,12.1s-12.1-5.4-12.1-12.1
		C605.6,247.6,611,242.1,617.7,242.1L617.7,242.1z M617.7,242.1"/>
	<path class="st1" d="M60.6,266.4c6.7,0,12.1,5.4,12.1,12.1c0,6.7-5.4,12.1-12.1,12.1c-6.7,0-12.1-5.4-12.1-12.1
		C48.4,271.8,53.9,266.4,60.6,266.4L60.6,266.4z M60.6,266.4"/>
	<path class="st1" d="M84.8,266.4c6.7,0,12.1,5.4,12.1,12.1c0,6.7-5.4,12.1-12.1,12.1c-6.7,0-12.1-5.4-12.1-12.1
		C72.7,271.8,78.1,266.4,84.8,266.4L84.8,266.4z M84.8,266.4"/>
	<path class="st1" d="M157.5,266.4c6.7,0,12.1,5.4,12.1,12.1c0,6.7-5.4,12.1-12.1,12.1c-6.7,0-12.1-5.4-12.1-12.1
		C145.3,271.8,150.8,266.4,157.5,266.4L157.5,266.4z M157.5,266.4"/>
	<path class="st1" d="M181.7,266.4c6.7,0,12.1,5.4,12.1,12.1c0,6.7-5.4,12.1-12.1,12.1s-12.1-5.4-12.1-12.1
		C169.6,271.8,175,266.4,181.7,266.4L181.7,266.4z M181.7,266.4"/>
	<path class="st1" d="M254.4,266.4c6.7,0,12.1,5.4,12.1,12.1c0,6.7-5.4,12.1-12.1,12.1c-6.7,0-12.1-5.4-12.1-12.1
		C242.2,271.8,247.7,266.4,254.4,266.4L254.4,266.4z M254.4,266.4"/>
	<path class="st1" d="M302.8,266.4c6.7,0,12.1,5.4,12.1,12.1c0,6.7-5.4,12.1-12.1,12.1c-6.7,0-12.1-5.4-12.1-12.1
		C290.7,271.8,296.1,266.4,302.8,266.4L302.8,266.4z M302.8,266.4"/>
	<path class="st1" d="M448.2,266.4c6.7,0,12.1,5.4,12.1,12.1c0,6.7-5.4,12.1-12.1,12.1c-6.7,0-12.1-5.4-12.1-12.1
		C436,271.8,441.5,266.4,448.2,266.4L448.2,266.4z M448.2,266.4"/>
	<path class="st1" d="M472.4,266.4c6.7,0,12.1,5.4,12.1,12.1c0,6.7-5.4,12.1-12.1,12.1c-6.7,0-12.1-5.4-12.1-12.1
		C460.3,271.8,465.7,266.4,472.4,266.4L472.4,266.4z M472.4,266.4"/>
	<path class="st1" d="M545.1,266.4c6.7,0,12.1,5.4,12.1,12.1c0,6.7-5.4,12.1-12.1,12.1c-6.7,0-12.1-5.4-12.1-12.1
		C532.9,271.8,538.4,266.4,545.1,266.4L545.1,266.4z M545.1,266.4"/>
	<path class="st1" d="M593.5,266.4c6.7,0,12.1,5.4,12.1,12.1c0,6.7-5.4,12.1-12.1,12.1s-12.1-5.4-12.1-12.1
		C581.4,271.8,586.8,266.4,593.5,266.4L593.5,266.4z M593.5,266.4"/>
	<path class="st1" d="M666.2,266.4c6.7,0,12.1,5.4,12.1,12.1c0,6.7-5.4,12.1-12.1,12.1c-6.7,0-12.1-5.4-12.1-12.1
		C654.1,271.8,659.5,266.4,666.2,266.4L666.2,266.4z M666.2,266.4"/>
	<path class="st1" d="M738.9,266.4c6.7,0,12.1,5.4,12.1,12.1c0,6.7-5.4,12.1-12.1,12.1c-6.7,0-12.1-5.4-12.1-12.1
		C726.7,271.8,732.2,266.4,738.9,266.4L738.9,266.4z M738.9,266.4"/>
	<path class="st1" d="M157.5,290.6c6.7,0,12.1,5.4,12.1,12.1c0,6.7-5.4,12.1-12.1,12.1c-6.7,0-12.1-5.4-12.1-12.1
		C145.3,296,150.8,290.6,157.5,290.6L157.5,290.6z M157.5,290.6"/>
	<path class="st1" d="M181.7,290.6c6.7,0,12.1,5.4,12.1,12.1c0,6.7-5.4,12.1-12.1,12.1s-12.1-5.4-12.1-12.1
		C169.6,296,175,290.6,181.7,290.6L181.7,290.6z M181.7,290.6"/>
	<path class="st1" d="M205.9,290.6c6.7,0,12.1,5.4,12.1,12.1c0,6.7-5.4,12.1-12.1,12.1s-12.1-5.4-12.1-12.1
		C193.8,296,199.2,290.6,205.9,290.6L205.9,290.6z M205.9,290.6"/>
	<path class="st1" d="M230.1,290.6c6.7,0,12.1,5.4,12.1,12.1c0,6.7-5.4,12.1-12.1,12.1c-6.7,0-12.1-5.4-12.1-12.1
		C218,296,223.4,290.6,230.1,290.6L230.1,290.6z M230.1,290.6"/>
	<path class="st1" d="M254.4,290.6c6.7,0,12.1,5.4,12.1,12.1c0,6.7-5.4,12.1-12.1,12.1c-6.7,0-12.1-5.4-12.1-12.1
		C242.2,296,247.7,290.6,254.4,290.6L254.4,290.6z M254.4,290.6"/>
	<path class="st1" d="M278.6,290.6c6.7,0,12.1,5.4,12.1,12.1c0,6.7-5.4,12.1-12.1,12.1s-12.1-5.4-12.1-12.1
		C266.5,296,271.9,290.6,278.6,290.6L278.6,290.6z M278.6,290.6"/>
	<path class="st1" d="M302.8,290.6c6.7,0,12.1,5.4,12.1,12.1c0,6.7-5.4,12.1-12.1,12.1c-6.7,0-12.1-5.4-12.1-12.1
		C290.7,296,296.1,290.6,302.8,290.6L302.8,290.6z M302.8,290.6"/>
	<path class="st1" d="M327,290.6c6.7,0,12.1,5.4,12.1,12.1c0,6.7-5.4,12.1-12.1,12.1c-6.7,0-12.1-5.4-12.1-12.1
		C314.9,296,320.3,290.6,327,290.6L327,290.6z M327,290.6"/>
	<path class="st1" d="M496.6,290.6c6.7,0,12.1,5.4,12.1,12.1c0,6.7-5.4,12.1-12.1,12.1c-6.7,0-12.1-5.4-12.1-12.1
		C484.5,296,489.9,290.6,496.6,290.6L496.6,290.6z M496.6,290.6"/>
	<path class="st1" d="M520.8,290.6c6.7,0,12.1,5.4,12.1,12.1c0,6.7-5.4,12.1-12.1,12.1s-12.1-5.4-12.1-12.1
		C508.7,296,514.1,290.6,520.8,290.6L520.8,290.6z M520.8,290.6"/>
	<path class="st1" d="M569.3,290.6c6.7,0,12.1,5.4,12.1,12.1c0,6.7-5.4,12.1-12.1,12.1s-12.1-5.4-12.1-12.1
		C557.2,296,562.6,290.6,569.3,290.6L569.3,290.6z M569.3,290.6"/>
	<path class="st1" d="M666.2,290.6c6.7,0,12.1,5.4,12.1,12.1c0,6.7-5.4,12.1-12.1,12.1c-6.7,0-12.1-5.4-12.1-12.1
		C654.1,296,659.5,290.6,666.2,290.6L666.2,290.6z M666.2,290.6"/>
	<path class="st1" d="M690.4,290.6c6.7,0,12.1,5.4,12.1,12.1c0,6.7-5.4,12.1-12.1,12.1s-12.1-5.4-12.1-12.1
		C678.3,296,683.7,290.6,690.4,290.6L690.4,290.6z M690.4,290.6"/>
	<path class="st1" d="M714.6,290.6c6.7,0,12.1,5.4,12.1,12.1c0,6.7-5.4,12.1-12.1,12.1s-12.1-5.4-12.1-12.1
		C702.5,296,707.9,290.6,714.6,290.6L714.6,290.6z M714.6,290.6"/>
	<path class="st1" d="M60.6,314.8c6.7,0,12.1,5.4,12.1,12.1S67.3,339,60.6,339c-6.7,0-12.1-5.4-12.1-12.1S53.9,314.8,60.6,314.8
		L60.6,314.8z M60.6,314.8"/>
	<path class="st1" d="M109,314.8c6.7,0,12.1,5.4,12.1,12.1S115.7,339,109,339c-6.7,0-12.1-5.4-12.1-12.1S102.3,314.8,109,314.8
		L109,314.8z M109,314.8"/>
	<path class="st1" d="M133.2,314.8c6.7,0,12.1,5.4,12.1,12.1s-5.4,12.1-12.1,12.1c-6.7,0-12.1-5.4-12.1-12.1
		S126.5,314.8,133.2,314.8L133.2,314.8z M133.2,314.8"/>
	<path class="st1" d="M181.7,314.8c6.7,0,12.1,5.4,12.1,12.1s-5.4,12.1-12.1,12.1s-12.1-5.4-12.1-12.1S175,314.8,181.7,314.8
		L181.7,314.8z M181.7,314.8"/>
	<path class="st1" d="M351.3,314.8c6.7,0,12.1,5.4,12.1,12.1S358,339,351.3,339s-12.1-5.4-12.1-12.1S344.6,314.8,351.3,314.8
		L351.3,314.8z M351.3,314.8"/>
	<path class="st1" d="M399.7,314.8c6.7,0,12.1,5.4,12.1,12.1s-5.4,12.1-12.1,12.1c-6.7,0-12.1-5.4-12.1-12.1S393,314.8,399.7,314.8
		L399.7,314.8z M399.7,314.8"/>
	<path class="st1" d="M448.2,314.8c6.7,0,12.1,5.4,12.1,12.1s-5.4,12.1-12.1,12.1c-6.7,0-12.1-5.4-12.1-12.1
		S441.5,314.8,448.2,314.8L448.2,314.8z M448.2,314.8"/>
	<path class="st1" d="M496.6,314.8c6.7,0,12.1,5.4,12.1,12.1s-5.4,12.1-12.1,12.1c-6.7,0-12.1-5.4-12.1-12.1
		S489.9,314.8,496.6,314.8L496.6,314.8z M496.6,314.8"/>
	<path class="st1" d="M520.8,314.8c6.7,0,12.1,5.4,12.1,12.1s-5.4,12.1-12.1,12.1s-12.1-5.4-12.1-12.1S514.1,314.8,520.8,314.8
		L520.8,314.8z M520.8,314.8"/>
	<path class="st1" d="M545.1,314.8c6.7,0,12.1,5.4,12.1,12.1s-5.4,12.1-12.1,12.1c-6.7,0-12.1-5.4-12.1-12.1
		S538.4,314.8,545.1,314.8L545.1,314.8z M545.1,314.8"/>
	<path class="st1" d="M617.7,314.8c6.7,0,12.1,5.4,12.1,12.1s-5.4,12.1-12.1,12.1s-12.1-5.4-12.1-12.1S611,314.8,617.7,314.8
		L617.7,314.8z M617.7,314.8"/>
	<path class="st1" d="M642,314.8c6.7,0,12.1,5.4,12.1,12.1S648.6,339,642,339c-6.7,0-12.1-5.4-12.1-12.1S635.3,314.8,642,314.8
		L642,314.8z M642,314.8"/>
	<path class="st1" d="M690.4,314.8c6.7,0,12.1,5.4,12.1,12.1s-5.4,12.1-12.1,12.1s-12.1-5.4-12.1-12.1S683.7,314.8,690.4,314.8
		L690.4,314.8z M690.4,314.8"/>
	<path class="st1" d="M714.6,314.8c6.7,0,12.1,5.4,12.1,12.1s-5.4,12.1-12.1,12.1s-12.1-5.4-12.1-12.1S707.9,314.8,714.6,314.8
		L714.6,314.8z M714.6,314.8"/>
	<path class="st1" d="M109,339c6.7,0,12.1,5.4,12.1,12.1c0,6.7-5.4,12.1-12.1,12.1c-6.7,0-12.1-5.4-12.1-12.1
		C96.9,344.5,102.3,339,109,339L109,339z M109,339"/>
	<path class="st1" d="M133.2,339c6.7,0,12.1,5.4,12.1,12.1c0,6.7-5.4,12.1-12.1,12.1c-6.7,0-12.1-5.4-12.1-12.1
		C121.1,344.5,126.5,339,133.2,339L133.2,339z M133.2,339"/>
	<path class="st1" d="M157.5,339c6.7,0,12.1,5.4,12.1,12.1c0,6.7-5.4,12.1-12.1,12.1c-6.7,0-12.1-5.4-12.1-12.1
		C145.3,344.5,150.8,339,157.5,339L157.5,339z M157.5,339"/>
	<path class="st1" d="M205.9,339c6.7,0,12.1,5.4,12.1,12.1c0,6.7-5.4,12.1-12.1,12.1s-12.1-5.4-12.1-12.1
		C193.8,344.5,199.2,339,205.9,339L205.9,339z M205.9,339"/>
	<path class="st1" d="M230.1,339c6.7,0,12.1,5.4,12.1,12.1c0,6.7-5.4,12.1-12.1,12.1c-6.7,0-12.1-5.4-12.1-12.1
		C218,344.5,223.4,339,230.1,339L230.1,339z M230.1,339"/>
	<path class="st1" d="M254.4,339c6.7,0,12.1,5.4,12.1,12.1c0,6.7-5.4,12.1-12.1,12.1c-6.7,0-12.1-5.4-12.1-12.1
		C242.2,344.5,247.7,339,254.4,339L254.4,339z M254.4,339"/>
	<path class="st1" d="M278.6,339c6.7,0,12.1,5.4,12.1,12.1c0,6.7-5.4,12.1-12.1,12.1s-12.1-5.4-12.1-12.1
		C266.5,344.5,271.9,339,278.6,339L278.6,339z M278.6,339"/>
	<path class="st1" d="M302.8,339c6.7,0,12.1,5.4,12.1,12.1c0,6.7-5.4,12.1-12.1,12.1c-6.7,0-12.1-5.4-12.1-12.1
		C290.7,344.5,296.1,339,302.8,339L302.8,339z M302.8,339"/>
	<path class="st1" d="M351.3,339c6.7,0,12.1,5.4,12.1,12.1c0,6.7-5.4,12.1-12.1,12.1s-12.1-5.4-12.1-12.1
		C339.1,344.5,344.6,339,351.3,339L351.3,339z M351.3,339"/>
	<path class="st1" d="M423.9,339c6.7,0,12.1,5.4,12.1,12.1c0,6.7-5.4,12.1-12.1,12.1c-6.7,0-12.1-5.4-12.1-12.1
		C411.8,344.5,417.2,339,423.9,339L423.9,339z M423.9,339"/>
	<path class="st1" d="M448.2,339c6.7,0,12.1,5.4,12.1,12.1c0,6.7-5.4,12.1-12.1,12.1c-6.7,0-12.1-5.4-12.1-12.1
		C436,344.5,441.5,339,448.2,339L448.2,339z M448.2,339"/>
	<path class="st1" d="M472.4,339c6.7,0,12.1,5.4,12.1,12.1c0,6.7-5.4,12.1-12.1,12.1c-6.7,0-12.1-5.4-12.1-12.1
		C460.3,344.5,465.7,339,472.4,339L472.4,339z M472.4,339"/>
	<path class="st1" d="M545.1,339c6.7,0,12.1,5.4,12.1,12.1c0,6.7-5.4,12.1-12.1,12.1c-6.7,0-12.1-5.4-12.1-12.1
		C532.9,344.5,538.4,339,545.1,339L545.1,339z M545.1,339"/>
	<path class="st1" d="M569.3,339c6.7,0,12.1,5.4,12.1,12.1c0,6.7-5.4,12.1-12.1,12.1s-12.1-5.4-12.1-12.1
		C557.2,344.5,562.6,339,569.3,339L569.3,339z M569.3,339"/>
	<path class="st1" d="M593.5,339c6.7,0,12.1,5.4,12.1,12.1c0,6.7-5.4,12.1-12.1,12.1s-12.1-5.4-12.1-12.1
		C581.4,344.5,586.8,339,593.5,339L593.5,339z M593.5,339"/>
	<path class="st1" d="M666.2,339c6.7,0,12.1,5.4,12.1,12.1c0,6.7-5.4,12.1-12.1,12.1c-6.7,0-12.1-5.4-12.1-12.1
		C654.1,344.5,659.5,339,666.2,339L666.2,339z M666.2,339"/>
	<path class="st1" d="M714.6,339c6.7,0,12.1,5.4,12.1,12.1c0,6.7-5.4,12.1-12.1,12.1s-12.1-5.4-12.1-12.1
		C702.5,344.5,707.9,339,714.6,339L714.6,339z M714.6,339"/>
	<path class="st1" d="M738.9,339c6.7,0,12.1,5.4,12.1,12.1c0,6.7-5.4,12.1-12.1,12.1c-6.7,0-12.1-5.4-12.1-12.1
		C726.7,344.5,732.2,339,738.9,339L738.9,339z M738.9,339"/>
	<path class="st1" d="M84.8,363.3c6.7,0,12.1,5.4,12.1,12.1c0,6.7-5.4,12.1-12.1,12.1c-6.7,0-12.1-5.4-12.1-12.1
		C72.7,368.7,78.1,363.3,84.8,363.3L84.8,363.3z M84.8,363.3"/>
	<path class="st1" d="M109,363.3c6.7,0,12.1,5.4,12.1,12.1c0,6.7-5.4,12.1-12.1,12.1c-6.7,0-12.1-5.4-12.1-12.1
		C96.9,368.7,102.3,363.3,109,363.3L109,363.3z M109,363.3"/>
	<path class="st1" d="M133.2,363.3c6.7,0,12.1,5.4,12.1,12.1c0,6.7-5.4,12.1-12.1,12.1c-6.7,0-12.1-5.4-12.1-12.1
		C121.1,368.7,126.5,363.3,133.2,363.3L133.2,363.3z M133.2,363.3"/>
	<path class="st1" d="M157.5,363.3c6.7,0,12.1,5.4,12.1,12.1c0,6.7-5.4,12.1-12.1,12.1c-6.7,0-12.1-5.4-12.1-12.1
		C145.3,368.7,150.8,363.3,157.5,363.3L157.5,363.3z M157.5,363.3"/>
	<path class="st1" d="M181.7,363.3c6.7,0,12.1,5.4,12.1,12.1c0,6.7-5.4,12.1-12.1,12.1s-12.1-5.4-12.1-12.1
		C169.6,368.7,175,363.3,181.7,363.3L181.7,363.3z M181.7,363.3"/>
	<path class="st1" d="M351.3,363.3c6.7,0,12.1,5.4,12.1,12.1c0,6.7-5.4,12.1-12.1,12.1s-12.1-5.4-12.1-12.1
		C339.1,368.7,344.6,363.3,351.3,363.3L351.3,363.3z M351.3,363.3"/>
	<path class="st1" d="M448.2,363.3c6.7,0,12.1,5.4,12.1,12.1c0,6.7-5.4,12.1-12.1,12.1c-6.7,0-12.1-5.4-12.1-12.1
		C436,368.7,441.5,363.3,448.2,363.3L448.2,363.3z M448.2,363.3"/>
	<path class="st1" d="M472.4,363.3c6.7,0,12.1,5.4,12.1,12.1c0,6.7-5.4,12.1-12.1,12.1c-6.7,0-12.1-5.4-12.1-12.1
		C460.3,368.7,465.7,363.3,472.4,363.3L472.4,363.3z M472.4,363.3"/>
	<path class="st1" d="M496.6,363.3c6.7,0,12.1,5.4,12.1,12.1c0,6.7-5.4,12.1-12.1,12.1c-6.7,0-12.1-5.4-12.1-12.1
		C484.5,368.7,489.9,363.3,496.6,363.3L496.6,363.3z M496.6,363.3"/>
	<path class="st1" d="M520.8,363.3c6.7,0,12.1,5.4,12.1,12.1c0,6.7-5.4,12.1-12.1,12.1s-12.1-5.4-12.1-12.1
		C508.7,368.7,514.1,363.3,520.8,363.3L520.8,363.3z M520.8,363.3"/>
	<path class="st1" d="M545.1,363.3c6.7,0,12.1,5.4,12.1,12.1c0,6.7-5.4,12.1-12.1,12.1c-6.7,0-12.1-5.4-12.1-12.1
		C532.9,368.7,538.4,363.3,545.1,363.3L545.1,363.3z M545.1,363.3"/>
	<path class="st1" d="M617.7,363.3c6.7,0,12.1,5.4,12.1,12.1c0,6.7-5.4,12.1-12.1,12.1s-12.1-5.4-12.1-12.1
		C605.6,368.7,611,363.3,617.7,363.3L617.7,363.3z M617.7,363.3"/>
	<path class="st1" d="M60.6,387.5c6.7,0,12.1,5.4,12.1,12.1s-5.4,12.1-12.1,12.1c-6.7,0-12.1-5.4-12.1-12.1S53.9,387.5,60.6,387.5
		L60.6,387.5z M60.6,387.5"/>
	<path class="st1" d="M84.8,387.5c6.7,0,12.1,5.4,12.1,12.1s-5.4,12.1-12.1,12.1c-6.7,0-12.1-5.4-12.1-12.1S78.1,387.5,84.8,387.5
		L84.8,387.5z M84.8,387.5"/>
	<path class="st1" d="M109,387.5c6.7,0,12.1,5.4,12.1,12.1s-5.4,12.1-12.1,12.1c-6.7,0-12.1-5.4-12.1-12.1S102.3,387.5,109,387.5
		L109,387.5z M109,387.5"/>
	<path class="st1" d="M181.7,387.5c6.7,0,12.1,5.4,12.1,12.1s-5.4,12.1-12.1,12.1s-12.1-5.4-12.1-12.1S175,387.5,181.7,387.5
		L181.7,387.5z M181.7,387.5"/>
	<path class="st1" d="M205.9,387.5c6.7,0,12.1,5.4,12.1,12.1s-5.4,12.1-12.1,12.1s-12.1-5.4-12.1-12.1S199.2,387.5,205.9,387.5
		L205.9,387.5z M205.9,387.5"/>
	<path class="st1" d="M230.1,387.5c6.7,0,12.1,5.4,12.1,12.1s-5.4,12.1-12.1,12.1c-6.7,0-12.1-5.4-12.1-12.1
		S223.4,387.5,230.1,387.5L230.1,387.5z M230.1,387.5"/>
	<path class="st1" d="M448.2,387.5c6.7,0,12.1,5.4,12.1,12.1s-5.4,12.1-12.1,12.1c-6.7,0-12.1-5.4-12.1-12.1
		S441.5,387.5,448.2,387.5L448.2,387.5z M448.2,387.5"/>
	<path class="st1" d="M472.4,387.5c6.7,0,12.1,5.4,12.1,12.1s-5.4,12.1-12.1,12.1c-6.7,0-12.1-5.4-12.1-12.1
		S465.7,387.5,472.4,387.5L472.4,387.5z M472.4,387.5"/>
	<path class="st1" d="M496.6,387.5c6.7,0,12.1,5.4,12.1,12.1s-5.4,12.1-12.1,12.1c-6.7,0-12.1-5.4-12.1-12.1
		S489.9,387.5,496.6,387.5L496.6,387.5z M496.6,387.5"/>
	<path class="st1" d="M545.1,387.5c6.7,0,12.1,5.4,12.1,12.1s-5.4,12.1-12.1,12.1c-6.7,0-12.1-5.4-12.1-12.1
		S538.4,387.5,545.1,387.5L545.1,387.5z M545.1,387.5"/>
	<path class="st1" d="M642,387.5c6.7,0,12.1,5.4,12.1,12.1s-5.4,12.1-12.1,12.1c-6.7,0-12.1-5.4-12.1-12.1S635.3,387.5,642,387.5
		L642,387.5z M642,387.5"/>
	<path class="st1" d="M666.2,387.5c6.7,0,12.1,5.4,12.1,12.1s-5.4,12.1-12.1,12.1c-6.7,0-12.1-5.4-12.1-12.1
		S659.5,387.5,666.2,387.5L666.2,387.5z M666.2,387.5"/>
	<path class="st1" d="M690.4,387.5c6.7,0,12.1,5.4,12.1,12.1s-5.4,12.1-12.1,12.1s-12.1-5.4-12.1-12.1S683.7,387.5,690.4,387.5
		L690.4,387.5z M690.4,387.5"/>
	<path class="st1" d="M714.6,387.5c6.7,0,12.1,5.4,12.1,12.1s-5.4,12.1-12.1,12.1s-12.1-5.4-12.1-12.1S707.9,387.5,714.6,387.5
		L714.6,387.5z M714.6,387.5"/>
	<path class="st1" d="M738.9,387.5c6.7,0,12.1,5.4,12.1,12.1s-5.4,12.1-12.1,12.1c-6.7,0-12.1-5.4-12.1-12.1
		S732.2,387.5,738.9,387.5L738.9,387.5z M738.9,387.5"/>
	<path class="st1" d="M133.2,411.7c6.7,0,12.1,5.4,12.1,12.1c0,6.7-5.4,12.1-12.1,12.1c-6.7,0-12.1-5.4-12.1-12.1
		C121.1,417.1,126.5,411.7,133.2,411.7L133.2,411.7z M133.2,411.7"/>
	<path class="st1" d="M230.1,411.7c6.7,0,12.1,5.4,12.1,12.1c0,6.7-5.4,12.1-12.1,12.1c-6.7,0-12.1-5.4-12.1-12.1
		C218,417.1,223.4,411.7,230.1,411.7L230.1,411.7z M230.1,411.7"/>
	<path class="st1" d="M254.4,411.7c6.7,0,12.1,5.4,12.1,12.1c0,6.7-5.4,12.1-12.1,12.1c-6.7,0-12.1-5.4-12.1-12.1
		C242.2,417.1,247.7,411.7,254.4,411.7L254.4,411.7z M254.4,411.7"/>
	<path class="st1" d="M327,411.7c6.7,0,12.1,5.4,12.1,12.1c0,6.7-5.4,12.1-12.1,12.1c-6.7,0-12.1-5.4-12.1-12.1
		C314.9,417.1,320.3,411.7,327,411.7L327,411.7z M327,411.7"/>
	<path class="st1" d="M375.5,411.7c6.7,0,12.1,5.4,12.1,12.1c0,6.7-5.4,12.1-12.1,12.1c-6.7,0-12.1-5.4-12.1-12.1
		C363.4,417.1,368.8,411.7,375.5,411.7L375.5,411.7z M375.5,411.7"/>
	<path class="st1" d="M399.7,411.7c6.7,0,12.1,5.4,12.1,12.1c0,6.7-5.4,12.1-12.1,12.1c-6.7,0-12.1-5.4-12.1-12.1
		C387.6,417.1,393,411.7,399.7,411.7L399.7,411.7z M399.7,411.7"/>
	<path class="st1" d="M423.9,411.7c6.7,0,12.1,5.4,12.1,12.1c0,6.7-5.4,12.1-12.1,12.1c-6.7,0-12.1-5.4-12.1-12.1
		C411.8,417.1,417.2,411.7,423.9,411.7L423.9,411.7z M423.9,411.7"/>
	<path class="st1" d="M472.4,411.7c6.7,0,12.1,5.4,12.1,12.1c0,6.7-5.4,12.1-12.1,12.1c-6.7,0-12.1-5.4-12.1-12.1
		C460.3,417.1,465.7,411.7,472.4,411.7L472.4,411.7z M472.4,411.7"/>
	<path class="st1" d="M617.7,411.7c6.7,0,12.1,5.4,12.1,12.1c0,6.7-5.4,12.1-12.1,12.1s-12.1-5.4-12.1-12.1
		C605.6,417.1,611,411.7,617.7,411.7L617.7,411.7z M617.7,411.7"/>
	<path class="st1" d="M666.2,411.7c6.7,0,12.1,5.4,12.1,12.1c0,6.7-5.4,12.1-12.1,12.1c-6.7,0-12.1-5.4-12.1-12.1
		C654.1,417.1,659.5,411.7,666.2,411.7L666.2,411.7z M666.2,411.7"/>
	<path class="st1" d="M714.6,411.7c6.7,0,12.1,5.4,12.1,12.1c0,6.7-5.4,12.1-12.1,12.1s-12.1-5.4-12.1-12.1
		C702.5,417.1,707.9,411.7,714.6,411.7L714.6,411.7z M714.6,411.7"/>
	<path class="st1" d="M60.6,435.9c6.7,0,12.1,5.4,12.1,12.1s-5.4,12.1-12.1,12.1c-6.7,0-12.1-5.4-12.1-12.1S53.9,435.9,60.6,435.9
		L60.6,435.9z M60.6,435.9"/>
	<path class="st1" d="M181.7,435.9c6.7,0,12.1,5.4,12.1,12.1s-5.4,12.1-12.1,12.1s-12.1-5.4-12.1-12.1S175,435.9,181.7,435.9
		L181.7,435.9z M181.7,435.9"/>
	<path class="st1" d="M205.9,435.9c6.7,0,12.1,5.4,12.1,12.1s-5.4,12.1-12.1,12.1s-12.1-5.4-12.1-12.1S199.2,435.9,205.9,435.9
		L205.9,435.9z M205.9,435.9"/>
	<path class="st1" d="M278.6,435.9c6.7,0,12.1,5.4,12.1,12.1s-5.4,12.1-12.1,12.1s-12.1-5.4-12.1-12.1S271.9,435.9,278.6,435.9
		L278.6,435.9z M278.6,435.9"/>
	<path class="st1" d="M302.8,435.9c6.7,0,12.1,5.4,12.1,12.1s-5.4,12.1-12.1,12.1c-6.7,0-12.1-5.4-12.1-12.1
		S296.1,435.9,302.8,435.9L302.8,435.9z M302.8,435.9"/>
	<path class="st1" d="M327,435.9c6.7,0,12.1,5.4,12.1,12.1s-5.4,12.1-12.1,12.1c-6.7,0-12.1-5.4-12.1-12.1S320.3,435.9,327,435.9
		L327,435.9z M327,435.9"/>
	<path class="st1" d="M375.5,435.9c6.7,0,12.1,5.4,12.1,12.1s-5.4,12.1-12.1,12.1c-6.7,0-12.1-5.4-12.1-12.1
		S368.8,435.9,375.5,435.9L375.5,435.9z M375.5,435.9"/>
	<path class="st1" d="M399.7,435.9c6.7,0,12.1,5.4,12.1,12.1s-5.4,12.1-12.1,12.1c-6.7,0-12.1-5.4-12.1-12.1S393,435.9,399.7,435.9
		L399.7,435.9z M399.7,435.9"/>
	<path class="st1" d="M423.9,435.9c6.7,0,12.1,5.4,12.1,12.1s-5.4,12.1-12.1,12.1c-6.7,0-12.1-5.4-12.1-12.1
		S417.2,435.9,423.9,435.9L423.9,435.9z M423.9,435.9"/>
	<path class="st1" d="M448.2,435.9c6.7,0,12.1,5.4,12.1,12.1s-5.4,12.1-12.1,12.1c-6.7,0-12.1-5.4-12.1-12.1
		S441.5,435.9,448.2,435.9L448.2,435.9z M448.2,435.9"/>
	<path class="st1" d="M472.4,435.9c6.7,0,12.1,5.4,12.1,12.1s-5.4,12.1-12.1,12.1c-6.7,0-12.1-5.4-12.1-12.1
		S465.7,435.9,472.4,435.9L472.4,435.9z M472.4,435.9"/>
	<path class="st1" d="M520.8,435.9c6.7,0,12.1,5.4,12.1,12.1s-5.4,12.1-12.1,12.1s-12.1-5.4-12.1-12.1S514.1,435.9,520.8,435.9
		L520.8,435.9z M520.8,435.9"/>
	<path class="st1" d="M545.1,435.9c6.7,0,12.1,5.4,12.1,12.1s-5.4,12.1-12.1,12.1c-6.7,0-12.1-5.4-12.1-12.1
		S538.4,435.9,545.1,435.9L545.1,435.9z M545.1,435.9"/>
	<path class="st1" d="M714.6,435.9c6.7,0,12.1,5.4,12.1,12.1s-5.4,12.1-12.1,12.1s-12.1-5.4-12.1-12.1S707.9,435.9,714.6,435.9
		L714.6,435.9z M714.6,435.9"/>
	<path class="st1" d="M109,460.2c6.7,0,12.1,5.4,12.1,12.1c0,6.7-5.4,12.1-12.1,12.1c-6.7,0-12.1-5.4-12.1-12.1
		C96.9,465.6,102.3,460.2,109,460.2L109,460.2z M109,460.2"/>
	<path class="st1" d="M133.2,460.2c6.7,0,12.1,5.4,12.1,12.1c0,6.7-5.4,12.1-12.1,12.1c-6.7,0-12.1-5.4-12.1-12.1
		C121.1,465.6,126.5,460.2,133.2,460.2L133.2,460.2z M133.2,460.2"/>
	<path class="st1" d="M181.7,460.2c6.7,0,12.1,5.4,12.1,12.1c0,6.7-5.4,12.1-12.1,12.1s-12.1-5.4-12.1-12.1
		C169.6,465.6,175,460.2,181.7,460.2L181.7,460.2z M181.7,460.2"/>
	<path class="st1" d="M254.4,460.2c6.7,0,12.1,5.4,12.1,12.1c0,6.7-5.4,12.1-12.1,12.1c-6.7,0-12.1-5.4-12.1-12.1
		C242.2,465.6,247.7,460.2,254.4,460.2L254.4,460.2z M254.4,460.2"/>
	<path class="st1" d="M278.6,460.2c6.7,0,12.1,5.4,12.1,12.1c0,6.7-5.4,12.1-12.1,12.1s-12.1-5.4-12.1-12.1
		C266.5,465.6,271.9,460.2,278.6,460.2L278.6,460.2z M278.6,460.2"/>
	<path class="st1" d="M302.8,460.2c6.7,0,12.1,5.4,12.1,12.1c0,6.7-5.4,12.1-12.1,12.1c-6.7,0-12.1-5.4-12.1-12.1
		C290.7,465.6,296.1,460.2,302.8,460.2L302.8,460.2z M302.8,460.2"/>
	<path class="st1" d="M351.3,460.2c6.7,0,12.1,5.4,12.1,12.1c0,6.7-5.4,12.1-12.1,12.1s-12.1-5.4-12.1-12.1
		C339.1,465.6,344.6,460.2,351.3,460.2L351.3,460.2z M351.3,460.2"/>
	<path class="st1" d="M448.2,460.2c6.7,0,12.1,5.4,12.1,12.1c0,6.7-5.4,12.1-12.1,12.1c-6.7,0-12.1-5.4-12.1-12.1
		C436,465.6,441.5,460.2,448.2,460.2L448.2,460.2z M448.2,460.2"/>
	<path class="st1" d="M496.6,460.2c6.7,0,12.1,5.4,12.1,12.1c0,6.7-5.4,12.1-12.1,12.1c-6.7,0-12.1-5.4-12.1-12.1
		C484.5,465.6,489.9,460.2,496.6,460.2L496.6,460.2z M496.6,460.2"/>
	<path class="st1" d="M569.3,460.2c6.7,0,12.1,5.4,12.1,12.1c0,6.7-5.4,12.1-12.1,12.1s-12.1-5.4-12.1-12.1
		C557.2,465.6,562.6,460.2,569.3,460.2L569.3,460.2z M569.3,460.2"/>
	<path class="st1" d="M593.5,460.2c6.7,0,12.1,5.4,12.1,12.1c0,6.7-5.4,12.1-12.1,12.1s-12.1-5.4-12.1-12.1
		C581.4,465.6,586.8,460.2,593.5,460.2L593.5,460.2z M593.5,460.2"/>
	<path class="st1" d="M617.7,460.2c6.7,0,12.1,5.4,12.1,12.1c0,6.7-5.4,12.1-12.1,12.1s-12.1-5.4-12.1-12.1
		C605.6,465.6,611,460.2,617.7,460.2L617.7,460.2z M617.7,460.2"/>
	<path class="st1" d="M666.2,460.2c6.7,0,12.1,5.4,12.1,12.1c0,6.7-5.4,12.1-12.1,12.1c-6.7,0-12.1-5.4-12.1-12.1
		C654.1,465.6,659.5,460.2,666.2,460.2L666.2,460.2z M666.2,460.2"/>
	<path class="st1" d="M738.9,460.2c6.7,0,12.1,5.4,12.1,12.1c0,6.7-5.4,12.1-12.1,12.1c-6.7,0-12.1-5.4-12.1-12.1
		C726.7,465.6,732.2,460.2,738.9,460.2L738.9,460.2z M738.9,460.2"/>
	<path class="st1" d="M60.6,484.4c6.7,0,12.1,5.4,12.1,12.1c0,6.7-5.4,12.1-12.1,12.1c-6.7,0-12.1-5.4-12.1-12.1
		C48.4,489.8,53.9,484.4,60.6,484.4L60.6,484.4z M60.6,484.4"/>
	<path class="st1" d="M109,484.4c6.7,0,12.1,5.4,12.1,12.1c0,6.7-5.4,12.1-12.1,12.1c-6.7,0-12.1-5.4-12.1-12.1
		C96.9,489.8,102.3,484.4,109,484.4L109,484.4z M109,484.4"/>
	<path class="st1" d="M133.2,484.4c6.7,0,12.1,5.4,12.1,12.1c0,6.7-5.4,12.1-12.1,12.1c-6.7,0-12.1-5.4-12.1-12.1
		C121.1,489.8,126.5,484.4,133.2,484.4L133.2,484.4z M133.2,484.4"/>
	<path class="st1" d="M205.9,484.4c6.7,0,12.1,5.4,12.1,12.1c0,6.7-5.4,12.1-12.1,12.1s-12.1-5.4-12.1-12.1
		C193.8,489.8,199.2,484.4,205.9,484.4L205.9,484.4z M205.9,484.4"/>
	<path class="st1" d="M230.1,484.4c6.7,0,12.1,5.4,12.1,12.1c0,6.7-5.4,12.1-12.1,12.1c-6.7,0-12.1-5.4-12.1-12.1
		C218,489.8,223.4,484.4,230.1,484.4L230.1,484.4z M230.1,484.4"/>
	<path class="st1" d="M254.4,484.4c6.7,0,12.1,5.4,12.1,12.1c0,6.7-5.4,12.1-12.1,12.1c-6.7,0-12.1-5.4-12.1-12.1
		C242.2,489.8,247.7,484.4,254.4,484.4L254.4,484.4z M254.4,484.4"/>
	<path class="st1" d="M375.5,484.4c6.7,0,12.1,5.4,12.1,12.1c0,6.7-5.4,12.1-12.1,12.1c-6.7,0-12.1-5.4-12.1-12.1
		C363.4,489.8,368.8,484.4,375.5,484.4L375.5,484.4z M375.5,484.4"/>
	<path class="st1" d="M496.6,484.4c6.7,0,12.1,5.4,12.1,12.1c0,6.7-5.4,12.1-12.1,12.1c-6.7,0-12.1-5.4-12.1-12.1
		C484.5,489.8,489.9,484.4,496.6,484.4L496.6,484.4z M496.6,484.4"/>
	<path class="st1" d="M569.3,484.4c6.7,0,12.1,5.4,12.1,12.1c0,6.7-5.4,12.1-12.1,12.1s-12.1-5.4-12.1-12.1
		C557.2,489.8,562.6,484.4,569.3,484.4L569.3,484.4z M569.3,484.4"/>
	<path class="st1" d="M617.7,484.4c6.7,0,12.1,5.4,12.1,12.1c0,6.7-5.4,12.1-12.1,12.1s-12.1-5.4-12.1-12.1
		C605.6,489.8,611,484.4,617.7,484.4L617.7,484.4z M617.7,484.4"/>
	<path class="st1" d="M714.6,484.4c6.7,0,12.1,5.4,12.1,12.1c0,6.7-5.4,12.1-12.1,12.1s-12.1-5.4-12.1-12.1
		C702.5,489.8,707.9,484.4,714.6,484.4L714.6,484.4z M714.6,484.4"/>
	<path class="st1" d="M738.9,484.4c6.7,0,12.1,5.4,12.1,12.1c0,6.7-5.4,12.1-12.1,12.1c-6.7,0-12.1-5.4-12.1-12.1
		C726.7,489.8,732.2,484.4,738.9,484.4L738.9,484.4z M738.9,484.4"/>
	<path class="st1" d="M109,508.6c6.7,0,12.1,5.4,12.1,12.1s-5.4,12.1-12.1,12.1c-6.7,0-12.1-5.4-12.1-12.1S102.3,508.6,109,508.6
		L109,508.6z M109,508.6"/>
	<path class="st1" d="M133.2,508.6c6.7,0,12.1,5.4,12.1,12.1s-5.4,12.1-12.1,12.1c-6.7,0-12.1-5.4-12.1-12.1
		S126.5,508.6,133.2,508.6L133.2,508.6z M133.2,508.6"/>
	<path class="st1" d="M230.1,508.6c6.7,0,12.1,5.4,12.1,12.1s-5.4,12.1-12.1,12.1c-6.7,0-12.1-5.4-12.1-12.1
		S223.4,508.6,230.1,508.6L230.1,508.6z M230.1,508.6"/>
	<path class="st1" d="M278.6,508.6c6.7,0,12.1,5.4,12.1,12.1s-5.4,12.1-12.1,12.1s-12.1-5.4-12.1-12.1S271.9,508.6,278.6,508.6
		L278.6,508.6z M278.6,508.6"/>
	<path class="st1" d="M327,508.6c6.7,0,12.1,5.4,12.1,12.1s-5.4,12.1-12.1,12.1c-6.7,0-12.1-5.4-12.1-12.1S320.3,508.6,327,508.6
		L327,508.6z M327,508.6"/>
	<path class="st1" d="M351.3,508.6c6.7,0,12.1,5.4,12.1,12.1s-5.4,12.1-12.1,12.1s-12.1-5.4-12.1-12.1S344.6,508.6,351.3,508.6
		L351.3,508.6z M351.3,508.6"/>
	<path class="st1" d="M375.5,508.6c6.7,0,12.1,5.4,12.1,12.1s-5.4,12.1-12.1,12.1c-6.7,0-12.1-5.4-12.1-12.1
		S368.8,508.6,375.5,508.6L375.5,508.6z M375.5,508.6"/>
	<path class="st1" d="M423.9,508.6c6.7,0,12.1,5.4,12.1,12.1s-5.4,12.1-12.1,12.1c-6.7,0-12.1-5.4-12.1-12.1
		S417.2,508.6,423.9,508.6L423.9,508.6z M423.9,508.6"/>
	<path class="st1" d="M472.4,508.6c6.7,0,12.1,5.4,12.1,12.1s-5.4,12.1-12.1,12.1c-6.7,0-12.1-5.4-12.1-12.1
		S465.7,508.6,472.4,508.6L472.4,508.6z M472.4,508.6"/>
	<path class="st1" d="M520.8,508.6c6.7,0,12.1,5.4,12.1,12.1s-5.4,12.1-12.1,12.1s-12.1-5.4-12.1-12.1S514.1,508.6,520.8,508.6
		L520.8,508.6z M520.8,508.6"/>
	<path class="st1" d="M617.7,508.6c6.7,0,12.1,5.4,12.1,12.1s-5.4,12.1-12.1,12.1s-12.1-5.4-12.1-12.1S611,508.6,617.7,508.6
		L617.7,508.6z M617.7,508.6"/>
	<path class="st1" d="M714.6,508.6c6.7,0,12.1,5.4,12.1,12.1s-5.4,12.1-12.1,12.1s-12.1-5.4-12.1-12.1S707.9,508.6,714.6,508.6
		L714.6,508.6z M714.6,508.6"/>
	<path class="st1" d="M738.9,508.6c6.7,0,12.1,5.4,12.1,12.1s-5.4,12.1-12.1,12.1c-6.7,0-12.1-5.4-12.1-12.1
		S732.2,508.6,738.9,508.6L738.9,508.6z M738.9,508.6"/>
	<path class="st1" d="M60.6,532.8c6.7,0,12.1,5.4,12.1,12.1s-5.4,12.1-12.1,12.1c-6.7,0-12.1-5.4-12.1-12.1S53.9,532.8,60.6,532.8
		L60.6,532.8z M60.6,532.8"/>
	<path class="st1" d="M133.2,532.8c6.7,0,12.1,5.4,12.1,12.1s-5.4,12.1-12.1,12.1c-6.7,0-12.1-5.4-12.1-12.1
		S126.5,532.8,133.2,532.8L133.2,532.8z M133.2,532.8"/>
	<path class="st1" d="M157.5,532.8c6.7,0,12.1,5.4,12.1,12.1s-5.4,12.1-12.1,12.1c-6.7,0-12.1-5.4-12.1-12.1
		S150.8,532.8,157.5,532.8L157.5,532.8z M157.5,532.8"/>
	<path class="st1" d="M205.9,532.8c6.7,0,12.1,5.4,12.1,12.1s-5.4,12.1-12.1,12.1s-12.1-5.4-12.1-12.1S199.2,532.8,205.9,532.8
		L205.9,532.8z M205.9,532.8"/>
	<path class="st1" d="M230.1,532.8c6.7,0,12.1,5.4,12.1,12.1s-5.4,12.1-12.1,12.1c-6.7,0-12.1-5.4-12.1-12.1
		S223.4,532.8,230.1,532.8L230.1,532.8z M230.1,532.8"/>
	<path class="st1" d="M278.6,532.8c6.7,0,12.1,5.4,12.1,12.1s-5.4,12.1-12.1,12.1s-12.1-5.4-12.1-12.1S271.9,532.8,278.6,532.8
		L278.6,532.8z M278.6,532.8"/>
	<path class="st1" d="M327,532.8c6.7,0,12.1,5.4,12.1,12.1s-5.4,12.1-12.1,12.1c-6.7,0-12.1-5.4-12.1-12.1S320.3,532.8,327,532.8
		L327,532.8z M327,532.8"/>
	<path class="st1" d="M351.3,532.8c6.7,0,12.1,5.4,12.1,12.1s-5.4,12.1-12.1,12.1s-12.1-5.4-12.1-12.1S344.6,532.8,351.3,532.8
		L351.3,532.8z M351.3,532.8"/>
	<path class="st1" d="M399.7,532.8c6.7,0,12.1,5.4,12.1,12.1s-5.4,12.1-12.1,12.1c-6.7,0-12.1-5.4-12.1-12.1S393,532.8,399.7,532.8
		L399.7,532.8z M399.7,532.8"/>
	<path class="st1" d="M448.2,532.8c6.7,0,12.1,5.4,12.1,12.1s-5.4,12.1-12.1,12.1c-6.7,0-12.1-5.4-12.1-12.1
		S441.5,532.8,448.2,532.8L448.2,532.8z M448.2,532.8"/>
	<path class="st1" d="M496.6,532.8c6.7,0,12.1,5.4,12.1,12.1s-5.4,12.1-12.1,12.1c-6.7,0-12.1-5.4-12.1-12.1
		S489.9,532.8,496.6,532.8L496.6,532.8z M496.6,532.8"/>
	<path class="st1" d="M545.1,532.8c6.7,0,12.1,5.4,12.1,12.1s-5.4,12.1-12.1,12.1c-6.7,0-12.1-5.4-12.1-12.1
		S538.4,532.8,545.1,532.8L545.1,532.8z M545.1,532.8"/>
	<path class="st1" d="M569.3,532.8c6.7,0,12.1,5.4,12.1,12.1s-5.4,12.1-12.1,12.1s-12.1-5.4-12.1-12.1S562.6,532.8,569.3,532.8
		L569.3,532.8z M569.3,532.8"/>
	<path class="st1" d="M593.5,532.8c6.7,0,12.1,5.4,12.1,12.1s-5.4,12.1-12.1,12.1s-12.1-5.4-12.1-12.1S586.8,532.8,593.5,532.8
		L593.5,532.8z M593.5,532.8"/>
	<path class="st1" d="M617.7,532.8c6.7,0,12.1,5.4,12.1,12.1s-5.4,12.1-12.1,12.1s-12.1-5.4-12.1-12.1S611,532.8,617.7,532.8
		L617.7,532.8z M617.7,532.8"/>
	<path class="st1" d="M642,532.8c6.7,0,12.1,5.4,12.1,12.1s-5.4,12.1-12.1,12.1c-6.7,0-12.1-5.4-12.1-12.1S635.3,532.8,642,532.8
		L642,532.8z M642,532.8"/>
	<path class="st1" d="M690.4,532.8c6.7,0,12.1,5.4,12.1,12.1s-5.4,12.1-12.1,12.1s-12.1-5.4-12.1-12.1S683.7,532.8,690.4,532.8
		L690.4,532.8z M690.4,532.8"/>
	<path class="st1" d="M254.4,557.1c6.7,0,12.1,5.4,12.1,12.1s-5.4,12.1-12.1,12.1c-6.7,0-12.1-5.4-12.1-12.1
		S247.7,557.1,254.4,557.1L254.4,557.1z M254.4,557.1"/>
	<path class="st1" d="M278.6,557.1c6.7,0,12.1,5.4,12.1,12.1s-5.4,12.1-12.1,12.1s-12.1-5.4-12.1-12.1S271.9,557.1,278.6,557.1
		L278.6,557.1z M278.6,557.1"/>
	<path class="st1" d="M302.8,557.1c6.7,0,12.1,5.4,12.1,12.1s-5.4,12.1-12.1,12.1c-6.7,0-12.1-5.4-12.1-12.1
		S296.1,557.1,302.8,557.1L302.8,557.1z M302.8,557.1"/>
	<path class="st1" d="M327,557.1c6.7,0,12.1,5.4,12.1,12.1s-5.4,12.1-12.1,12.1c-6.7,0-12.1-5.4-12.1-12.1S320.3,557.1,327,557.1
		L327,557.1z M327,557.1"/>
	<path class="st1" d="M351.3,557.1c6.7,0,12.1,5.4,12.1,12.1s-5.4,12.1-12.1,12.1s-12.1-5.4-12.1-12.1S344.6,557.1,351.3,557.1
		L351.3,557.1z M351.3,557.1"/>
	<path class="st1" d="M375.5,557.1c6.7,0,12.1,5.4,12.1,12.1s-5.4,12.1-12.1,12.1c-6.7,0-12.1-5.4-12.1-12.1
		S368.8,557.1,375.5,557.1L375.5,557.1z M375.5,557.1"/>
	<path class="st1" d="M448.2,557.1c6.7,0,12.1,5.4,12.1,12.1s-5.4,12.1-12.1,12.1c-6.7,0-12.1-5.4-12.1-12.1
		S441.5,557.1,448.2,557.1L448.2,557.1z M448.2,557.1"/>
	<path class="st1" d="M545.1,557.1c6.7,0,12.1,5.4,12.1,12.1s-5.4,12.1-12.1,12.1c-6.7,0-12.1-5.4-12.1-12.1
		S538.4,557.1,545.1,557.1L545.1,557.1z M545.1,557.1"/>
	<path class="st1" d="M642,557.1c6.7,0,12.1,5.4,12.1,12.1s-5.4,12.1-12.1,12.1c-6.7,0-12.1-5.4-12.1-12.1S635.3,557.1,642,557.1
		L642,557.1z M642,557.1"/>
	<path class="st1" d="M690.4,557.1c6.7,0,12.1,5.4,12.1,12.1s-5.4,12.1-12.1,12.1s-12.1-5.4-12.1-12.1S683.7,557.1,690.4,557.1
		L690.4,557.1z M690.4,557.1"/>
	<path class="st1" d="M714.6,557.1c6.7,0,12.1,5.4,12.1,12.1s-5.4,12.1-12.1,12.1s-12.1-5.4-12.1-12.1S707.9,557.1,714.6,557.1
		L714.6,557.1z M714.6,557.1"/>
	<path class="st1" d="M738.9,557.1c6.7,0,12.1,5.4,12.1,12.1s-5.4,12.1-12.1,12.1c-6.7,0-12.1-5.4-12.1-12.1
		S732.2,557.1,738.9,557.1L738.9,557.1z M738.9,557.1"/>
	<path class="st1" d="M278.6,581.3c6.7,0,12.1,5.4,12.1,12.1c0,6.7-5.4,12.1-12.1,12.1s-12.1-5.4-12.1-12.1
		C266.5,586.7,271.9,581.3,278.6,581.3L278.6,581.3z M278.6,581.3"/>
	<path class="st1" d="M302.8,581.3c6.7,0,12.1,5.4,12.1,12.1c0,6.7-5.4,12.1-12.1,12.1c-6.7,0-12.1-5.4-12.1-12.1
		C290.7,586.7,296.1,581.3,302.8,581.3L302.8,581.3z M302.8,581.3"/>
	<path class="st1" d="M351.3,581.3c6.7,0,12.1,5.4,12.1,12.1c0,6.7-5.4,12.1-12.1,12.1s-12.1-5.4-12.1-12.1
		C339.1,586.7,344.6,581.3,351.3,581.3L351.3,581.3z M351.3,581.3"/>
	<path class="st1" d="M375.5,581.3c6.7,0,12.1,5.4,12.1,12.1c0,6.7-5.4,12.1-12.1,12.1c-6.7,0-12.1-5.4-12.1-12.1
		C363.4,586.7,368.8,581.3,375.5,581.3L375.5,581.3z M375.5,581.3"/>
	<path class="st1" d="M399.7,581.3c6.7,0,12.1,5.4,12.1,12.1c0,6.7-5.4,12.1-12.1,12.1c-6.7,0-12.1-5.4-12.1-12.1
		C387.6,586.7,393,581.3,399.7,581.3L399.7,581.3z M399.7,581.3"/>
	<path class="st1" d="M472.4,581.3c6.7,0,12.1,5.4,12.1,12.1c0,6.7-5.4,12.1-12.1,12.1c-6.7,0-12.1-5.4-12.1-12.1
		C460.3,586.7,465.7,581.3,472.4,581.3L472.4,581.3z M472.4,581.3"/>
	<path class="st1" d="M545.1,581.3c6.7,0,12.1,5.4,12.1,12.1c0,6.7-5.4,12.1-12.1,12.1c-6.7,0-12.1-5.4-12.1-12.1
		C532.9,586.7,538.4,581.3,545.1,581.3L545.1,581.3z M545.1,581.3"/>
	<path class="st1" d="M593.5,581.3c6.7,0,12.1,5.4,12.1,12.1c0,6.7-5.4,12.1-12.1,12.1s-12.1-5.4-12.1-12.1
		C581.4,586.7,586.8,581.3,593.5,581.3L593.5,581.3z M593.5,581.3"/>
	<path class="st1" d="M642,581.3c6.7,0,12.1,5.4,12.1,12.1c0,6.7-5.4,12.1-12.1,12.1c-6.7,0-12.1-5.4-12.1-12.1
		C629.8,586.7,635.3,581.3,642,581.3L642,581.3z M642,581.3"/>
	<path class="st1" d="M714.6,581.3c6.7,0,12.1,5.4,12.1,12.1c0,6.7-5.4,12.1-12.1,12.1s-12.1-5.4-12.1-12.1
		C702.5,586.7,707.9,581.3,714.6,581.3L714.6,581.3z M714.6,581.3"/>
	<path class="st1" d="M254.4,605.5c6.7,0,12.1,5.4,12.1,12.1c0,6.7-5.4,12.1-12.1,12.1c-6.7,0-12.1-5.4-12.1-12.1
		C242.2,610.9,247.7,605.5,254.4,605.5L254.4,605.5z M254.4,605.5"/>
	<path class="st1" d="M278.6,605.5c6.7,0,12.1,5.4,12.1,12.1c0,6.7-5.4,12.1-12.1,12.1s-12.1-5.4-12.1-12.1
		C266.5,610.9,271.9,605.5,278.6,605.5L278.6,605.5z M278.6,605.5"/>
	<path class="st1" d="M302.8,605.5c6.7,0,12.1,5.4,12.1,12.1c0,6.7-5.4,12.1-12.1,12.1c-6.7,0-12.1-5.4-12.1-12.1
		C290.7,610.9,296.1,605.5,302.8,605.5L302.8,605.5z M302.8,605.5"/>
	<path class="st1" d="M375.5,605.5c6.7,0,12.1,5.4,12.1,12.1c0,6.7-5.4,12.1-12.1,12.1c-6.7,0-12.1-5.4-12.1-12.1
		C363.4,610.9,368.8,605.5,375.5,605.5L375.5,605.5z M375.5,605.5"/>
	<path class="st1" d="M423.9,605.5c6.7,0,12.1,5.4,12.1,12.1c0,6.7-5.4,12.1-12.1,12.1c-6.7,0-12.1-5.4-12.1-12.1
		C411.8,610.9,417.2,605.5,423.9,605.5L423.9,605.5z M423.9,605.5"/>
	<path class="st1" d="M448.2,605.5c6.7,0,12.1,5.4,12.1,12.1c0,6.7-5.4,12.1-12.1,12.1c-6.7,0-12.1-5.4-12.1-12.1
		C436,610.9,441.5,605.5,448.2,605.5L448.2,605.5z M448.2,605.5"/>
	<path class="st1" d="M496.6,605.5c6.7,0,12.1,5.4,12.1,12.1c0,6.7-5.4,12.1-12.1,12.1c-6.7,0-12.1-5.4-12.1-12.1
		C484.5,610.9,489.9,605.5,496.6,605.5L496.6,605.5z M496.6,605.5"/>
	<path class="st1" d="M545.1,605.5c6.7,0,12.1,5.4,12.1,12.1c0,6.7-5.4,12.1-12.1,12.1c-6.7,0-12.1-5.4-12.1-12.1
		C532.9,610.9,538.4,605.5,545.1,605.5L545.1,605.5z M545.1,605.5"/>
	<path class="st1" d="M642,605.5c6.7,0,12.1,5.4,12.1,12.1c0,6.7-5.4,12.1-12.1,12.1c-6.7,0-12.1-5.4-12.1-12.1
		C629.8,610.9,635.3,605.5,642,605.5L642,605.5z M642,605.5"/>
	<path class="st1" d="M666.2,605.5c6.7,0,12.1,5.4,12.1,12.1c0,6.7-5.4,12.1-12.1,12.1c-6.7,0-12.1-5.4-12.1-12.1
		C654.1,610.9,659.5,605.5,666.2,605.5L666.2,605.5z M666.2,605.5"/>
	<path class="st1" d="M690.4,605.5c6.7,0,12.1,5.4,12.1,12.1c0,6.7-5.4,12.1-12.1,12.1s-12.1-5.4-12.1-12.1
		C678.3,610.9,683.7,605.5,690.4,605.5L690.4,605.5z M690.4,605.5"/>
	<path class="st1" d="M714.6,605.5c6.7,0,12.1,5.4,12.1,12.1c0,6.7-5.4,12.1-12.1,12.1s-12.1-5.4-12.1-12.1
		C702.5,610.9,707.9,605.5,714.6,605.5L714.6,605.5z M714.6,605.5"/>
	<path class="st1" d="M738.9,605.5c6.7,0,12.1,5.4,12.1,12.1c0,6.7-5.4,12.1-12.1,12.1c-6.7,0-12.1-5.4-12.1-12.1
		C726.7,610.9,732.2,605.5,738.9,605.5L738.9,605.5z M738.9,605.5"/>
	<path class="st1" d="M278.6,629.7c6.7,0,12.1,5.4,12.1,12.1s-5.4,12.1-12.1,12.1s-12.1-5.4-12.1-12.1S271.9,629.7,278.6,629.7
		L278.6,629.7z M278.6,629.7"/>
	<path class="st1" d="M302.8,629.7c6.7,0,12.1,5.4,12.1,12.1s-5.4,12.1-12.1,12.1c-6.7,0-12.1-5.4-12.1-12.1
		S296.1,629.7,302.8,629.7L302.8,629.7z M302.8,629.7"/>
	<path class="st1" d="M351.3,629.7c6.7,0,12.1,5.4,12.1,12.1S358,654,351.3,654s-12.1-5.4-12.1-12.1S344.6,629.7,351.3,629.7
		L351.3,629.7z M351.3,629.7"/>
	<path class="st1" d="M399.7,629.7c6.7,0,12.1,5.4,12.1,12.1s-5.4,12.1-12.1,12.1c-6.7,0-12.1-5.4-12.1-12.1S393,629.7,399.7,629.7
		L399.7,629.7z M399.7,629.7"/>
	<path class="st1" d="M448.2,629.7c6.7,0,12.1,5.4,12.1,12.1s-5.4,12.1-12.1,12.1c-6.7,0-12.1-5.4-12.1-12.1
		S441.5,629.7,448.2,629.7L448.2,629.7z M448.2,629.7"/>
	<path class="st1" d="M472.4,629.7c6.7,0,12.1,5.4,12.1,12.1s-5.4,12.1-12.1,12.1c-6.7,0-12.1-5.4-12.1-12.1
		S465.7,629.7,472.4,629.7L472.4,629.7z M472.4,629.7"/>
	<path class="st1" d="M545.1,629.7c6.7,0,12.1,5.4,12.1,12.1s-5.4,12.1-12.1,12.1c-6.7,0-12.1-5.4-12.1-12.1
		S538.4,629.7,545.1,629.7L545.1,629.7z M545.1,629.7"/>
	<path class="st1" d="M569.3,629.7c6.7,0,12.1,5.4,12.1,12.1S576,654,569.3,654s-12.1-5.4-12.1-12.1S562.6,629.7,569.3,629.7
		L569.3,629.7z M569.3,629.7"/>
	<path class="st1" d="M593.5,629.7c6.7,0,12.1,5.4,12.1,12.1s-5.4,12.1-12.1,12.1s-12.1-5.4-12.1-12.1S586.8,629.7,593.5,629.7
		L593.5,629.7z M593.5,629.7"/>
	<path class="st1" d="M617.7,629.7c6.7,0,12.1,5.4,12.1,12.1s-5.4,12.1-12.1,12.1s-12.1-5.4-12.1-12.1S611,629.7,617.7,629.7
		L617.7,629.7z M617.7,629.7"/>
	<path class="st1" d="M642,629.7c6.7,0,12.1,5.4,12.1,12.1S648.6,654,642,654c-6.7,0-12.1-5.4-12.1-12.1S635.3,629.7,642,629.7
		L642,629.7z M642,629.7"/>
	<path class="st1" d="M714.6,629.7c6.7,0,12.1,5.4,12.1,12.1s-5.4,12.1-12.1,12.1s-12.1-5.4-12.1-12.1S707.9,629.7,714.6,629.7
		L714.6,629.7z M714.6,629.7"/>
	<path class="st1" d="M738.9,629.7c6.7,0,12.1,5.4,12.1,12.1s-5.4,12.1-12.1,12.1c-6.7,0-12.1-5.4-12.1-12.1
		S732.2,629.7,738.9,629.7L738.9,629.7z M738.9,629.7"/>
	<path class="st1" d="M254.4,654c6.7,0,12.1,5.4,12.1,12.1s-5.4,12.1-12.1,12.1c-6.7,0-12.1-5.4-12.1-12.1S247.7,654,254.4,654
		L254.4,654z M254.4,654"/>
	<path class="st1" d="M327,654c6.7,0,12.1,5.4,12.1,12.1s-5.4,12.1-12.1,12.1c-6.7,0-12.1-5.4-12.1-12.1S320.3,654,327,654L327,654z
		 M327,654"/>
	<path class="st1" d="M351.3,654c6.7,0,12.1,5.4,12.1,12.1s-5.4,12.1-12.1,12.1s-12.1-5.4-12.1-12.1S344.6,654,351.3,654L351.3,654z
		 M351.3,654"/>
	<path class="st1" d="M399.7,654c6.7,0,12.1,5.4,12.1,12.1s-5.4,12.1-12.1,12.1c-6.7,0-12.1-5.4-12.1-12.1S393,654,399.7,654
		L399.7,654z M399.7,654"/>
	<path class="st1" d="M520.8,654c6.7,0,12.1,5.4,12.1,12.1s-5.4,12.1-12.1,12.1s-12.1-5.4-12.1-12.1S514.1,654,520.8,654L520.8,654z
		 M520.8,654"/>
	<path class="st1" d="M593.5,654c6.7,0,12.1,5.4,12.1,12.1s-5.4,12.1-12.1,12.1s-12.1-5.4-12.1-12.1S586.8,654,593.5,654L593.5,654z
		 M593.5,654"/>
	<path class="st1" d="M617.7,654c6.7,0,12.1,5.4,12.1,12.1s-5.4,12.1-12.1,12.1s-12.1-5.4-12.1-12.1S611,654,617.7,654L617.7,654z
		 M617.7,654"/>
	<path class="st1" d="M642,654c6.7,0,12.1,5.4,12.1,12.1s-5.4,12.1-12.1,12.1c-6.7,0-12.1-5.4-12.1-12.1S635.3,654,642,654L642,654z
		 M642,654"/>
	<path class="st1" d="M666.2,654c6.7,0,12.1,5.4,12.1,12.1s-5.4,12.1-12.1,12.1c-6.7,0-12.1-5.4-12.1-12.1S659.5,654,666.2,654
		L666.2,654z M666.2,654"/>
	<path class="st1" d="M690.4,654c6.7,0,12.1,5.4,12.1,12.1s-5.4,12.1-12.1,12.1s-12.1-5.4-12.1-12.1S683.7,654,690.4,654L690.4,654z
		 M690.4,654"/>
	<path class="st1" d="M714.6,654c6.7,0,12.1,5.4,12.1,12.1s-5.4,12.1-12.1,12.1s-12.1-5.4-12.1-12.1S707.9,654,714.6,654L714.6,654z
		 M714.6,654"/>
	<path class="st1" d="M302.8,678.2c6.7,0,12.1,5.4,12.1,12.1s-5.4,12.1-12.1,12.1c-6.7,0-12.1-5.4-12.1-12.1
		S296.1,678.2,302.8,678.2L302.8,678.2z M302.8,678.2"/>
	<path class="st1" d="M327,678.2c6.7,0,12.1,5.4,12.1,12.1s-5.4,12.1-12.1,12.1c-6.7,0-12.1-5.4-12.1-12.1S320.3,678.2,327,678.2
		L327,678.2z M327,678.2"/>
	<path class="st1" d="M375.5,678.2c6.7,0,12.1,5.4,12.1,12.1s-5.4,12.1-12.1,12.1c-6.7,0-12.1-5.4-12.1-12.1
		S368.8,678.2,375.5,678.2L375.5,678.2z M375.5,678.2"/>
	<path class="st1" d="M399.7,678.2c6.7,0,12.1,5.4,12.1,12.1s-5.4,12.1-12.1,12.1c-6.7,0-12.1-5.4-12.1-12.1S393,678.2,399.7,678.2
		L399.7,678.2z M399.7,678.2"/>
	<path class="st1" d="M448.2,678.2c6.7,0,12.1,5.4,12.1,12.1s-5.4,12.1-12.1,12.1c-6.7,0-12.1-5.4-12.1-12.1
		S441.5,678.2,448.2,678.2L448.2,678.2z M448.2,678.2"/>
	<path class="st1" d="M472.4,678.2c6.7,0,12.1,5.4,12.1,12.1s-5.4,12.1-12.1,12.1c-6.7,0-12.1-5.4-12.1-12.1
		S465.7,678.2,472.4,678.2L472.4,678.2z M472.4,678.2"/>
	<path class="st1" d="M496.6,678.2c6.7,0,12.1,5.4,12.1,12.1s-5.4,12.1-12.1,12.1c-6.7,0-12.1-5.4-12.1-12.1
		S489.9,678.2,496.6,678.2L496.6,678.2z M496.6,678.2"/>
	<path class="st1" d="M520.8,678.2c6.7,0,12.1,5.4,12.1,12.1s-5.4,12.1-12.1,12.1s-12.1-5.4-12.1-12.1S514.1,678.2,520.8,678.2
		L520.8,678.2z M520.8,678.2"/>
	<path class="st1" d="M642,678.2c6.7,0,12.1,5.4,12.1,12.1s-5.4,12.1-12.1,12.1c-6.7,0-12.1-5.4-12.1-12.1S635.3,678.2,642,678.2
		L642,678.2z M642,678.2"/>
	<path class="st1" d="M666.2,678.2c6.7,0,12.1,5.4,12.1,12.1s-5.4,12.1-12.1,12.1c-6.7,0-12.1-5.4-12.1-12.1
		S659.5,678.2,666.2,678.2L666.2,678.2z M666.2,678.2"/>
	<path class="st1" d="M690.4,678.2c6.7,0,12.1,5.4,12.1,12.1s-5.4,12.1-12.1,12.1s-12.1-5.4-12.1-12.1S683.7,678.2,690.4,678.2
		L690.4,678.2z M690.4,678.2"/>
	<path class="st1" d="M738.9,678.2c6.7,0,12.1,5.4,12.1,12.1s-5.4,12.1-12.1,12.1c-6.7,0-12.1-5.4-12.1-12.1
		S732.2,678.2,738.9,678.2L738.9,678.2z M738.9,678.2"/>
	<path class="st1" d="M278.6,702.4c6.7,0,12.1,5.4,12.1,12.1s-5.4,12.1-12.1,12.1s-12.1-5.4-12.1-12.1S271.9,702.4,278.6,702.4
		L278.6,702.4z M278.6,702.4"/>
	<path class="st1" d="M351.3,702.4c6.7,0,12.1,5.4,12.1,12.1s-5.4,12.1-12.1,12.1s-12.1-5.4-12.1-12.1S344.6,702.4,351.3,702.4
		L351.3,702.4z M351.3,702.4"/>
	<path class="st1" d="M399.7,702.4c6.7,0,12.1,5.4,12.1,12.1s-5.4,12.1-12.1,12.1c-6.7,0-12.1-5.4-12.1-12.1S393,702.4,399.7,702.4
		L399.7,702.4z M399.7,702.4"/>
	<path class="st1" d="M448.2,702.4c6.7,0,12.1,5.4,12.1,12.1s-5.4,12.1-12.1,12.1c-6.7,0-12.1-5.4-12.1-12.1
		S441.5,702.4,448.2,702.4L448.2,702.4z M448.2,702.4"/>
	<path class="st1" d="M472.4,702.4c6.7,0,12.1,5.4,12.1,12.1s-5.4,12.1-12.1,12.1c-6.7,0-12.1-5.4-12.1-12.1
		S465.7,702.4,472.4,702.4L472.4,702.4z M472.4,702.4"/>
	<path class="st1" d="M496.6,702.4c6.7,0,12.1,5.4,12.1,12.1s-5.4,12.1-12.1,12.1c-6.7,0-12.1-5.4-12.1-12.1
		S489.9,702.4,496.6,702.4L496.6,702.4z M496.6,702.4"/>
	<path class="st1" d="M520.8,702.4c6.7,0,12.1,5.4,12.1,12.1s-5.4,12.1-12.1,12.1s-12.1-5.4-12.1-12.1S514.1,702.4,520.8,702.4
		L520.8,702.4z M520.8,702.4"/>
	<path class="st1" d="M545.1,702.4c6.7,0,12.1,5.4,12.1,12.1s-5.4,12.1-12.1,12.1c-6.7,0-12.1-5.4-12.1-12.1
		S538.4,702.4,545.1,702.4L545.1,702.4z M545.1,702.4"/>
	<path class="st1" d="M642,702.4c6.7,0,12.1,5.4,12.1,12.1s-5.4,12.1-12.1,12.1c-6.7,0-12.1-5.4-12.1-12.1S635.3,702.4,642,702.4
		L642,702.4z M642,702.4"/>
	<path class="st1" d="M714.6,702.4c6.7,0,12.1,5.4,12.1,12.1s-5.4,12.1-12.1,12.1s-12.1-5.4-12.1-12.1S707.9,702.4,714.6,702.4
		L714.6,702.4z M714.6,702.4"/>
	<path class="st1" d="M254.4,726.6c6.7,0,12.1,5.4,12.1,12.1c0,6.7-5.4,12.1-12.1,12.1c-6.7,0-12.1-5.4-12.1-12.1
		C242.2,732.1,247.7,726.6,254.4,726.6L254.4,726.6z M254.4,726.6"/>
	<path class="st1" d="M302.8,726.6c6.7,0,12.1,5.4,12.1,12.1c0,6.7-5.4,12.1-12.1,12.1c-6.7,0-12.1-5.4-12.1-12.1
		C290.7,732.1,296.1,726.6,302.8,726.6L302.8,726.6z M302.8,726.6"/>
	<path class="st1" d="M351.3,726.6c6.7,0,12.1,5.4,12.1,12.1c0,6.7-5.4,12.1-12.1,12.1s-12.1-5.4-12.1-12.1
		C339.1,732.1,344.6,726.6,351.3,726.6L351.3,726.6z M351.3,726.6"/>
	<path class="st1" d="M375.5,726.6c6.7,0,12.1,5.4,12.1,12.1c0,6.7-5.4,12.1-12.1,12.1c-6.7,0-12.1-5.4-12.1-12.1
		C363.4,732.1,368.8,726.6,375.5,726.6L375.5,726.6z M375.5,726.6"/>
	<path class="st1" d="M399.7,726.6c6.7,0,12.1,5.4,12.1,12.1c0,6.7-5.4,12.1-12.1,12.1c-6.7,0-12.1-5.4-12.1-12.1
		C387.6,732.1,393,726.6,399.7,726.6L399.7,726.6z M399.7,726.6"/>
	<path class="st1" d="M423.9,726.6c6.7,0,12.1,5.4,12.1,12.1c0,6.7-5.4,12.1-12.1,12.1c-6.7,0-12.1-5.4-12.1-12.1
		C411.8,732.1,417.2,726.6,423.9,726.6L423.9,726.6z M423.9,726.6"/>
	<path class="st1" d="M472.4,726.6c6.7,0,12.1,5.4,12.1,12.1c0,6.7-5.4,12.1-12.1,12.1c-6.7,0-12.1-5.4-12.1-12.1
		C460.3,732.1,465.7,726.6,472.4,726.6L472.4,726.6z M472.4,726.6"/>
	<path class="st1" d="M545.1,726.6c6.7,0,12.1,5.4,12.1,12.1c0,6.7-5.4,12.1-12.1,12.1c-6.7,0-12.1-5.4-12.1-12.1
		C532.9,732.1,538.4,726.6,545.1,726.6L545.1,726.6z M545.1,726.6"/>
	<path class="st1" d="M617.7,726.6c6.7,0,12.1,5.4,12.1,12.1c0,6.7-5.4,12.1-12.1,12.1s-12.1-5.4-12.1-12.1
		C605.6,732.1,611,726.6,617.7,726.6L617.7,726.6z M617.7,726.6"/>
	<path class="st1" d="M666.2,726.6c6.7,0,12.1,5.4,12.1,12.1c0,6.7-5.4,12.1-12.1,12.1c-6.7,0-12.1-5.4-12.1-12.1
		C654.1,732.1,659.5,726.6,666.2,726.6L666.2,726.6z M666.2,726.6"/>
	<path class="st1" d="M714.6,726.6c6.7,0,12.1,5.4,12.1,12.1c0,6.7-5.4,12.1-12.1,12.1s-12.1-5.4-12.1-12.1
		C702.5,732.1,707.9,726.6,714.6,726.6L714.6,726.6z M714.6,726.6"/>
	<path class="st1" d="M133.2,50c-45.9,0-83.1,37.2-83.1,83.1c0,45.9,37.2,83.1,83.1,83.1s83.1-37.2,83.1-83.1
		C216.4,87.2,179.1,50,133.2,50L133.2,50z M133.2,191.3c-32.1,0-58.2-26.1-58.2-58.2c0-32.1,26.1-58.2,58.2-58.2
		s58.2,26.1,58.2,58.2C191.4,165.2,165.3,191.3,133.2,191.3L133.2,191.3z M133.2,191.3"/>
	<path class="st1" d="M666.2,50c-45.9,0-83.1,37.2-83.1,83.1c0,45.9,37.2,83.1,83.1,83.1c45.9,0,83.1-37.2,83.1-83.1
		C749.3,87.2,712.1,50,666.2,50L666.2,50z M666.2,191.3c-32.1,0-58.2-26.1-58.2-58.2c0-32.1,26.1-58.2,58.2-58.2
		c32.1,0,58.2,26.1,58.2,58.2C724.4,165.2,698.3,191.3,666.2,191.3L666.2,191.3z M666.2,191.3"/>
	<path class="st1" d="M133.2,582.9c-45.9,0-83.1,37.2-83.1,83.1s37.2,83.1,83.1,83.1s83.1-37.2,83.1-83.1S179.1,582.9,133.2,582.9
		L133.2,582.9z M133.2,724.3c-32.1,0-58.2-26.1-58.2-58.2s26.1-58.2,58.2-58.2s58.2,26.1,58.2,58.2S165.3,724.3,133.2,724.3
		L133.2,724.3z M133.2,724.3"/>
	<path class="st1" d="M168.1,132.4c0,19.7-16,35.6-35.6,35.6c-19.7,0-35.6-16-35.6-35.6c0-19.7,15.9-35.6,35.6-35.6
		C152.2,96.8,168.1,112.7,168.1,132.4L168.1,132.4z M168.1,132.4"/>
	<path class="st1" d="M701.1,132.4c0,19.7-16,35.6-35.6,35.6c-19.7,0-35.6-16-35.6-35.6c0-19.7,15.9-35.6,35.6-35.6
		C685.1,96.8,701.1,112.7,701.1,132.4L701.1,132.4z M701.1,132.4"/>
	<path class="st1" d="M168.1,665.4c0,19.7-16,35.6-35.6,35.6c-19.7,0-35.6-16-35.6-35.6c0-19.7,15.9-35.6,35.6-35.6
		C152.2,629.7,168.1,645.7,168.1,665.4L168.1,665.4z M168.1,665.4"/>
</g>
</svg>
