<?xml version="1.0" encoding="utf-8"?>
<!-- Generator: Adobe Illustrator 24.2.0, SVG Export Plug-In . SVG Version: 6.00 Build 0)  -->
<svg width="25" height="24" version="1.1" id="Capa_1" xmlns="http://www.w3.org/2000/svg" xmlns:xlink="http://www.w3.org/1999/xlink" x="0px" y="0px"
	 viewBox="0 0 25 24" style="enable-background:new 0 0 25 24;" xml:space="preserve">
<style type="text/css">
	.st0{fill:#FFFFFF;}
</style>
<path class="st0" d="M12.5,0.1C5.9,0.1,0.6,5.4,0.6,12c0,2.1,0.5,4.2,1.6,6l-1.6,6l6.2-1.5c1.7,0.9,3.7,1.4,5.7,1.4h0
	c6.6,0,11.9-5.3,11.9-11.9c0-3.2-1.2-6.2-3.5-8.4C18.7,1.3,15.7,0.1,12.5,0.1z M12.5,2.5c2.5,0,4.9,1,6.7,2.8C21.1,7,22,9.4,22,12
	c0,5.3-4.3,9.5-9.5,9.5c-1.6,0-3.2-0.4-4.6-1.2l-0.8-0.4l-0.9,0.2l-2.3,0.6l0.6-2.1l0.3-1l-0.5-0.9C3.4,15.3,3,13.7,3,12
	C3,6.7,7.3,2.5,12.5,2.5z M8.3,6.5c-0.2,0-0.5,0.1-0.8,0.4c-0.3,0.3-1,1-1,2.5s1.1,2.9,1.2,3.1c0.1,0.2,2.1,3.3,5.1,4.5
	c2.5,1,3,0.8,3.6,0.7c0.5,0,1.8-0.7,2-1.4c0.2-0.7,0.2-1.3,0.2-1.4c-0.1-0.1-0.3-0.2-0.6-0.3c-0.3-0.1-1.8-0.9-2-1
	c-0.3-0.1-0.5-0.1-0.7,0.1c-0.2,0.3-0.8,1-0.9,1.2c-0.2,0.2-0.3,0.2-0.6,0.1c-0.3-0.2-1.3-0.5-2.4-1.5c-0.9-0.8-1.5-1.8-1.7-2.1
	c-0.2-0.3,0-0.5,0.1-0.6c0.1-0.1,0.3-0.3,0.4-0.5c0.1-0.2,0.2-0.3,0.3-0.5c0.1-0.2,0-0.4,0-0.5S9.8,7.6,9.5,7
	C9.3,6.5,9.1,6.5,8.9,6.5C8.7,6.5,8.5,6.5,8.3,6.5z"/>
</svg>
