<svg width="34" height="24" viewBox="0 0 34 24" fill="none" xmlns="http://www.w3.org/2000/svg">
<path d="M13.7372 23.2665C7.42024 23.1502 5.2627 23.0455 3.93655 22.7723C3.03932 22.5908 2.25962 22.1877 1.68793 21.6031C1.24609 21.1606 0.894701 20.4855 0.622086 19.5489C0.38824 18.7686 0.297163 18.1194 0.167317 16.5335C-0.0314526 12.9545 -0.0788372 10.0283 0.167317 6.75877C0.370394 4.95323 0.468855 2.80985 1.81778 1.55938C2.4547 0.974154 3.19562 0.597538 4.02762 0.441846C5.32732 0.195077 10.8645 0 16.5969 0C22.3162 0 27.8658 0.195077 29.1667 0.441846C30.2061 0.636923 31.1809 1.22154 31.7532 1.97538C32.9839 3.91138 33.0055 6.31877 33.1304 8.20185C33.1821 9.09908 33.1821 14.1938 33.1304 15.0911C32.9359 18.0671 32.7796 19.12 32.3378 20.2117C32.0645 20.9009 31.8313 21.2646 31.4276 21.6677C30.7945 22.288 29.9874 22.7006 29.1138 22.8505C23.6473 23.2615 19.0055 23.3508 13.7372 23.2665ZM22.1082 11.3083C19.067 9.68308 16.155 8.176 13.1784 6.616V15.9489C16.3107 14.2462 19.6129 12.6862 22.1212 11.2954L22.1082 11.3083Z" fill="white"/>
</svg>
